<svg width="52" height="32" viewBox="0 0 52 32" fill="none" xmlns="http://www.w3.org/2000/svg">
<path d="M17.0771 23.6908L16.7652 24.0131C16.0397 24.7601 15.1173 25.2787 14.1086 25.5067L12.5077 25.8679C12.3394 25.9059 12.1808 25.9791 12.0419 26.0828C11.903 26.1865 11.787 26.3184 11.7011 26.4701C11.6152 26.6219 11.5613 26.7901 11.5429 26.9641C11.5246 27.1381 11.5421 27.314 11.5944 27.4808L11.9055 28.4735C12.108 29.1199 12.1348 29.8098 11.9831 30.4704L11.9215 30.7382C11.864 30.9885 11.7326 31.2149 11.5448 31.3872C11.357 31.5595 11.1219 31.6694 10.8708 31.7022C10.6198 31.7351 10.3648 31.6893 10.1401 31.571C9.91543 31.4526 9.73173 31.2674 9.61361 31.0402L8.57563 29.0417C8.02769 27.9867 7.61465 26.8651 7.34652 25.7039L7.1346 24.7842C7.02262 24.2999 7.01202 23.7972 7.10349 23.3085C7.19495 22.8198 7.38644 22.3561 7.66559 21.9472C8.23336 21.116 8.80114 20.2832 9.20338 19.4414C9.27628 19.2913 9.37827 19.1577 9.50326 19.0486C10.0119 18.5972 10.4069 18.0509 10.7556 17.4495C11.5145 16.1401 13.3465 16.0671 14.163 17.3391L17.233 22.1177C17.3879 22.3587 17.4569 22.6463 17.4285 22.9326C17.4001 23.2189 17.2761 23.4859 17.0771 23.6908ZM31.4697 23.5293L32.0783 24.4952C32.2042 24.6945 32.2933 24.9154 32.3414 25.1471L33.4266 30.3892C33.4973 30.7315 33.6572 31.0482 33.8896 31.3064L33.9408 31.3633C34.1922 31.6428 34.5183 31.8422 34.8792 31.9373C35.2402 32.0324 35.6206 32.0191 35.9742 31.899C36.3279 31.779 36.6396 31.5573 36.8716 31.2609C37.1036 30.9645 37.2458 30.6061 37.281 30.2293L37.5193 27.6886C37.5357 27.5153 37.5289 27.3405 37.4993 27.1691C37.345 26.2729 36.8244 23.2841 36.4861 21.8888C36.2862 21.0608 35.2538 20.5779 34.2726 20.3011C33.1947 19.9967 32.0495 20.4772 31.4569 21.4415C31.0643 22.082 31.0691 22.8945 31.4697 23.5293Z" fill="#EE6900"/>
<path d="M1.51363 0.540375L1.89028 0.460826C2.57961 0.255459 3.109 0.122336 3.53763 0.0460341C4.1409 -0.0612772 4.76205 0.020058 5.31874 0.279257C5.87544 0.538456 6.34138 0.963278 6.65479 1.4974C6.97707 2.04451 7.29454 2.68902 7.3801 3.21014L7.65999 4.92857C7.8555 6.59112 8.52978 8.15819 9.59842 9.43365L9.88071 9.77052C10.3296 10.3067 10.8644 10.7622 11.4625 11.118L11.7104 11.2649C12.3412 11.6399 13.0585 11.8387 13.7896 11.8412C13.9351 11.8412 14.0774 11.8299 14.2214 11.8023C14.4453 11.7584 14.8611 11.7089 14.8611 11.7089C16.1469 11.7091 17.4218 11.4703 18.6228 11.0043L21.0627 10.0571L22.6101 9.50833C24.7411 8.75275 26.9974 8.42844 29.2514 8.55374L33.6561 8.79807C33.7175 8.80143 33.7787 8.80903 33.8392 8.8208L36.2662 9.29404C37.9816 9.62928 39.924 10.1382 41.5257 9.43041L43.6433 8.27532C43.7169 8.24285 44.3182 7.84916 44.3846 7.80452L46.0759 6.6194C46.3782 6.41646 47.537 5.98219 47.8912 6.05525L49.1819 6.10963C50.0656 6.29308 49.4962 6.59504 49.0851 7.40921L48.7413 7.97904C48.5182 8.41981 49.026 8.90603 49.2915 9.32082L50.9276 11.8737C51.1136 12.1636 51.2407 12.4882 51.3015 12.8286C51.3623 13.169 51.3557 13.5182 51.2819 13.8559C51.1337 14.5332 50.7662 15.1404 50.2381 15.5808C49.7101 16.0212 49.0519 16.2693 48.3686 16.2854L46.8348 16.322C46.7397 16.3236 46.6453 16.3366 46.5525 16.3585L45.9952 16.4924C45.4997 16.6117 44.9809 16.5838 44.5006 16.4121C44.2864 16.3355 44.0568 16.3146 43.8326 16.3511C43.6084 16.3875 43.3968 16.4804 43.217 16.621C43.0371 16.7617 42.8948 16.9458 42.8029 17.1565C42.711 17.3673 42.6725 17.598 42.6909 17.8277C42.7173 18.1597 42.6669 18.4933 42.5437 18.801L42.0895 19.9398C41.9344 20.3286 41.9616 20.7678 42.1631 21.1331C42.538 21.8139 43.0402 22.4139 43.6417 22.8994L44.4222 23.5293C45.2392 24.1882 45.7666 25.1481 45.8896 26.1999L45.964 26.8403C46.0024 27.1685 45.9736 27.5012 45.8795 27.8175C45.7854 28.1339 45.6279 28.4271 45.417 28.6789L44.9948 29.1822C43.7776 30.6351 41.377 29.5393 41.7369 27.6667C41.7424 27.6371 41.7483 27.6076 41.7545 27.5782C41.8576 27.0993 41.7329 26.596 41.3866 26.2534L40.8228 25.6933C40.1104 24.9877 39.2289 24.483 38.2654 24.229L36.1383 23.6673C36.0063 23.6324 35.8808 23.578 35.7648 23.5057C34.861 22.9398 33.7836 22.7312 32.738 22.9197L30.9324 23.246C30.854 23.2598 30.774 23.2671 30.694 23.2671H24.8444C24.375 23.2671 23.9383 23.5122 23.6896 23.9165L22.7148 25.4969C22.5069 25.8362 22.4517 26.2502 22.5669 26.6325L23.4593 29.6116C23.5025 29.7577 23.5225 29.9095 23.5169 30.0613L23.4993 30.5889C23.4895 30.8747 23.3926 31.1504 23.222 31.3779C23.0513 31.6055 22.8154 31.7738 22.5466 31.8595C22.2778 31.9453 21.9895 31.9443 21.7213 31.8567C21.453 31.7691 21.2182 31.5993 21.0491 31.3706L19.0475 28.6618L17.7728 26.945C17.5944 26.7048 17.4985 26.4134 17.4985 26.113V24.324C17.4985 23.9522 17.3513 23.5967 17.0906 23.3369L14.7604 21.0154C14.6465 20.9018 14.5531 20.7688 14.4845 20.6225L12.9251 17.2928C12.7892 17.003 12.5756 16.7611 12.3053 16.5963C11.093 15.856 7.48166 13.4655 6.01184 10.4345C3.13618 6.33205 6.55403 2.33754 2.46365 3.68744C1.43206 4.02755 0.263733 1.85943 1.51363 0.540375Z" fill="#EE6900"/>
</svg>
