<?xml version="1.0" encoding="UTF-8"?>
<svg id="Layer_2" data-name="Layer 2" xmlns="http://www.w3.org/2000/svg" xmlns:xlink="http://www.w3.org/1999/xlink" viewBox="0 0 54 54">
  <defs>
    <style>
      .cls-1 {
        clip-path: url(#clippath);
      }

      .cls-2 {
        fill: none;
      }

      .cls-2, .cls-3 {
        stroke-width: 0px;
      }

      .cls-3 {
        fill: #ee6900;
      }
    </style>
    <clipPath id="clippath">
      <rect class="cls-2" width="54" height="54"/>
    </clipPath>
  </defs>
  <g id="Layer_1-2" data-name="Layer 1">
    <g class="cls-1">
      <path class="cls-3" d="M22.02,11c.66,0,1.62.19,2.45.79.88.64,1.53,1.69,1.53,3.21v2.51c0,.35-.11.69-.31.98-.19.26-.51.52-1.18.52s-.99-.26-1.18-.52c-.2-.29-.3-.63-.31-.98,0-.27-.1-.52-.29-.71-.19-.19-.44-.29-.7-.29s-.52.11-.7.29c-.19.19-.29.44-.29.71,0,.58.16,1.42.69,2.15.56.78,1.48,1.35,2.8,1.35.64,0,1.19-.13,1.64-.36.29,2.22,1.12,5.21,3.55,7.65,2.16,2.17,3.23,4.87,3.75,6.97.28,1.13.45,2.27.52,3.43,0,.07,0,.15,0,.22v.08s0,0,0,0c0,.01,0,.03,0,.06.02.35.11.68.27,1,.12.26.31.48.55.65.24.16.6.3,1.18.3.84,0,1.65-.26,2.33-.75s1.19-1.18,1.45-1.98c.26-.8.27-1.66.02-2.46-.25-.8-.74-1.5-1.41-2.01-.1-.08-.19-.18-.26-.29-.07-.11-.11-.24-.13-.37s-.01-.26.02-.39c.03-.13.09-.25.17-.35s.18-.19.29-.26c.11-.07.24-.11.37-.13.13-.02.26-.01.39.02.13.03.25.09.35.17,1,.76,1.75,1.81,2.12,3.01.37,1.2.36,2.49-.04,3.69s-1.16,2.23-2.18,2.97c-1.02.74-2.24,1.13-3.5,1.13h-15.95v-1c0-.81.37-2.09,1.46-2.66.47-.24,1-.35,1.53-.34h1.99c.26,0,.52-.11.7-.29s.29-.44.29-.71-.1-.52-.29-.71-.44-.29-.7-.29h-1.99c-.35,0-.68.03-1,.08v-5.08c0-.27-.11-.52-.29-.71-.19-.19-.44-.29-.7-.29s-.52.11-.7.29c-.19.19-.29.44-.29.71v5.9c-1.57,1.14-1.99,3.04-1.99,4.1v1h-4.98c-.26,0-.52-.11-.7-.29-.19-.19-.29-.44-.29-.71,0-1.74.59-3.05,1.6-3.89.69-.55,1.51-.91,2.38-1.03v-16.08h-1c-.79,0-1.55-.32-2.11-.88-.56-.56-.88-1.33-.88-2.12v-2.43c0-.35.09-.68.26-.98.17-.3.41-.55.71-.73l3.55-2.14c.77-.47,1.66-.71,2.56-.71h2.88Z"/>
    </g>
  </g>
</svg>