<svg width="30" height="32" viewBox="0 0 30 32" fill="none" xmlns="http://www.w3.org/2000/svg">
<path d="M10.0372 1.71196e-08C10.695 1.71196e-08 11.6598 0.19 12.489 0.788C13.366 1.424 14.0238 2.474 14.0238 4V6.506C14.017 6.85537 13.9089 7.1952 13.7129 7.484C13.5255 7.746 13.2026 8.004 12.5308 8.004C11.8591 8.004 11.5362 7.746 11.3488 7.484C11.1524 7.19535 11.0443 6.85543 11.0378 6.506C11.0378 6.24078 10.9328 5.98643 10.7459 5.79889C10.559 5.61136 10.3055 5.506 10.0412 5.506C9.77685 5.506 9.52335 5.61136 9.33644 5.79889C9.14954 5.98643 9.04453 6.24078 9.04453 6.506C9.04453 7.084 9.20798 7.926 9.73023 8.652C10.2884 9.432 11.2093 10.004 12.5308 10.004C13.1687 10.004 13.7168 9.87 14.1733 9.644C14.4584 11.868 15.2896 14.856 17.7194 17.292C19.8841 19.466 20.9466 22.158 21.4688 24.258C21.7475 25.3834 21.921 26.5323 21.9871 27.69C21.9906 27.7633 21.9933 27.8366 21.9951 27.91V27.972L21.9971 27.992V28C21.9971 28.01 21.9971 28.03 22.001 28.058C22.0245 28.4041 22.1146 28.7423 22.2662 29.054C22.389 29.314 22.5781 29.5368 22.8143 29.7C23.0535 29.86 23.4163 30 23.9904 30C24.8271 30 25.6426 29.7359 26.3214 29.245C27.0002 28.7541 27.5078 28.0614 27.7724 27.2649C28.037 26.4685 28.0451 25.6087 27.7956 24.8073C27.5462 24.006 27.0517 23.3037 26.3823 22.8C26.2776 22.7211 26.1894 22.6222 26.1228 22.5091C26.0562 22.396 26.0124 22.2708 25.994 22.1407C25.9756 22.0106 25.9829 21.8782 26.0155 21.7509C26.0481 21.6236 26.1053 21.5041 26.184 21.399C26.2627 21.2939 26.3612 21.2055 26.4739 21.1386C26.5867 21.0717 26.7114 21.0278 26.8411 21.0093C26.9707 20.9909 27.1028 20.9982 27.2296 21.0309C27.3564 21.0636 27.4756 21.1211 27.5803 21.2C28.5845 21.9557 29.3263 23.0093 29.7004 24.2115C30.0746 25.4137 30.0622 26.7035 29.6651 27.8983C29.268 29.0931 28.5062 30.1322 27.4877 30.8683C26.4692 31.6045 25.2456 32.0004 23.9904 32H8.04389V31C8.04389 30.19 8.41863 28.908 9.50498 28.336C9.97938 28.0997 10.5045 27.9844 11.0339 28H13.0272C13.2915 28 13.545 27.8946 13.7319 27.7071C13.9188 27.5196 14.0238 27.2652 14.0238 27C14.0238 26.7348 13.9188 26.4804 13.7319 26.2929C13.545 26.1054 13.2915 26 13.0272 26H11.0339C10.683 26 10.3521 26.028 10.0372 26.08V21C10.0372 20.7348 9.93219 20.4804 9.74529 20.2929C9.55838 20.1054 9.30487 20 9.04054 20C8.77621 20 8.52271 20.1054 8.3358 20.2929C8.14889 20.4804 8.04389 20.7348 8.04389 21V26.896C6.46917 28.036 6.05058 29.932 6.05058 31V32H1.0673C0.802975 32 0.549471 31.8946 0.362562 31.7071C0.175653 31.5196 0.0706482 31.2652 0.0706482 31C0.0706482 29.26 0.660669 27.954 1.67526 27.106C2.36102 26.5515 3.18463 26.1954 4.05727 26.076V10H3.06061C2.26763 10 1.50712 9.68393 0.94639 9.12132C0.385664 8.55871 0.0706482 7.79565 0.0706482 7V4.566C0.070715 4.22089 0.159781 3.88168 0.329185 3.58133C0.49859 3.28098 0.742573 3.02973 1.03741 2.852L4.59147 0.712C5.36587 0.246025 6.2519 -7.49442e-05 7.15487 1.71196e-08H10.0372Z" fill="white"/>
</svg>
