<svg width="104" height="54" viewBox="0 0 104 54" fill="none" xmlns="http://www.w3.org/2000/svg">
<path d="M40.1 15.1998C39.8 14.9998 39.4 14.7998 38.9 14.7998C38.1 14.7998 37.4 15.1998 37 16.0998C36.6 16.7998 36.5 17.7998 36.5 19.0998C36.5 20.5998 36.8 21.7998 37.3 22.4998C37.7 22.9998 38.2 23.2998 38.9 23.2998C39.4 23.2998 39.7 23.1998 40 22.9998C40.4 22.6998 40.7 22.2998 40.9 21.5998C41.1 20.9998 41.2 20.1998 41.2 19.1998C41.2 17.9998 41.1 17.0998 40.9 16.4998C40.7 15.8998 40.4 15.3998 40.1 15.1998Z" fill="#58595B"/>
<path d="M48.4 12.5999C48.3 11.7999 47.6 11.0999 46.8 11.0999H28.4C28.4 11.0999 19.1 9.6999 12.9 19.5999C12.2 20.6999 5.80002 32.3999 17.3 41.7999C17.3 41.7999 15.4 37.5999 16.7 33.4999C18.6 37.7999 22.9 40.6999 27.9 40.6999C34.7 40.6999 40.2 35.1999 40.2 28.3999C40.2 27.9999 40.2 27.5999 40.1 27.1999C42.7 26.9999 45.1 26.3999 46.6 24.8999C46.8 25.9999 46.9 27.1999 46.9 28.3999C47 38.5999 38.7 46.9999 28.4 46.9999C18.1 46.9999 9.70002 38.5999 9.70002 28.2999C9.70002 19.3999 15.9 11.9999 24.3 10.0999C24.1 9.9999 24 9.7999 23.8 9.5999C23.7 9.4999 23.6 9.2999 23.4 9.1999L20 5.8999C13.6 8.6999 10.8 16.5999 10.8 16.5999C9.80002 13.6999 7.60002 11.6999 7.60002 11.6999L4.90002 14.3999C7.80002 16.2999 9.60002 18.9999 10.4 20.2999C9.30002 22.7999 8.70002 25.4999 8.70002 28.2999C8.70002 39.1999 17.6 48.0999 28.5 48.0999C39.4 48.0999 48.3 39.1999 48.3 28.2999C48.3 26.6999 48.1 25.0999 47.7 23.5999C48 22.9999 48.2 22.3999 48.3 21.5999C48.6 17.3999 48.5 14.2999 48.4 12.5999ZM26.3 20.3999H26.5C26.7 21.3999 27.1 22.0999 27.6 22.5999C28.2 23.0999 28.8 23.3999 29.4 23.3999C29.9 23.3999 30.3 23.2999 30.6 22.9999C30.9 22.6999 31 22.3999 31 22.0999C31 21.8999 30.9 21.6999 30.8 21.4999C30.7 21.2999 30.5 21.0999 30.3 20.8999C30.1 20.6999 29.7 20.4999 29.1 20.1999C28.3 19.7999 27.7 19.4999 27.3 19.1999C26.9 18.8999 26.7 18.5999 26.5 18.1999C26.3 17.8999 26.2 17.4999 26.2 16.9999C26.2 16.2999 26.5 15.6999 27 15.1999C27.5 14.6999 28.2 14.3999 29 14.3999C29.3 14.3999 29.6 14.3999 29.9 14.4999C30.1 14.5999 30.4 14.6999 30.7 14.7999C31 14.8999 31.2 14.9999 31.3 14.9999C31.4 14.9999 31.5 14.9999 31.6 14.8999C31.7 14.7999 31.7 14.6999 31.8 14.3999H32L32.1 17.3999H31.8C31.7 16.5999 31.4 15.9999 30.8 15.5999C30.3 15.0999 29.7 14.8999 29.2 14.8999C28.7 14.8999 28.4 14.9999 28.1 15.2999C27.8 15.4999 27.7 15.7999 27.7 16.0999C27.7 16.2999 27.7 16.4999 27.8 16.5999C27.9 16.7999 28.1 16.9999 28.4 17.1999C28.6 17.2999 29.1 17.5999 29.8 17.9999C30.9 18.4999 31.6 18.9999 31.9 19.4999C32.3 19.9999 32.4 20.4999 32.4 21.0999C32.4 21.8999 32.1 22.4999 31.5 22.9999C30.9 23.4999 30.2 23.7999 29.3 23.7999C29 23.7999 28.7 23.7999 28.5 23.6999C28.2 23.5999 27.9 23.4999 27.5 23.3999C27.3 23.2999 27.1 23.2999 27 23.2999C26.9 23.2999 26.8 23.2999 26.6 23.3999C26.5 23.4999 26.4 23.5999 26.3 23.7999H26.1V20.3999H26.3ZM20.2 23.2999H20.5C20.8 23.2999 21 23.2999 21.1 23.1999C21.2 23.0999 21.3 22.9999 21.4 22.8999C21.4 22.7999 21.5 22.4999 21.5 22.0999V16.1999C21.5 15.6999 21.5 15.4999 21.4 15.2999C21.4 15.1999 21.3 15.0999 21.1 14.9999C21 14.8999 20.8 14.8999 20.5 14.8999H20.2V14.6999H24.9V14.8999H24.6C24.3 14.8999 24.1 14.8999 24 14.9999C23.9 15.0999 23.8 15.1999 23.7 15.2999C23.7 15.3999 23.6 15.6999 23.6 16.0999V21.9999C23.6 22.4999 23.6 22.7999 23.7 22.8999C23.8 22.9999 23.9 23.0999 24 23.1999C24.1 23.2999 24.4 23.2999 24.6 23.2999H24.9V23.4999H20.2V23.2999ZM39.5 28.3999C39.5 34.7999 34.3 39.9999 28 39.9999C23.1 39.9999 18.8 36.8999 17.2 32.4999C17.4 31.9999 17.7 31.4999 18.1 30.9999C21.6 26.2999 26.6 27.1999 32.4 27.1999C34.5 27.1999 37.1 27.3999 39.5 27.1999C39.5 27.5999 39.5 27.9999 39.5 28.3999ZM42.6 21.9999C41.7 23.1999 40.5 23.6999 38.8 23.6999C37.2 23.6999 35.9 23.0999 35 21.9999C34.4 21.2999 34 20.1999 34 18.9999C34 17.6999 34.5 16.4999 35.4 15.5999C36.3 14.6999 37.4 14.2999 38.8 14.2999C40.2 14.1999 41.4 14.6999 42.3 15.5999C43.2 16.4999 43.7 17.5999 43.7 18.9999C43.6 20.1999 43.3 21.1999 42.6 21.9999Z" fill="#58595B"/>
<path d="M22.7 32.3001C22.8 32.2001 22.8 32.2001 22.9 32.1001C23 32.0001 23 32.0001 23.1 31.9001C23.1 31.8001 23.2 31.7001 23.2 31.6001C23.2 31.5001 23.2 31.4001 23.2 31.3001C23.2 31.1001 23.2 30.9001 23.1 30.8001C23 30.7001 22.9 30.5001 22.8 30.4001C22.7 30.3001 22.5 30.2001 22.4 30.2001C22.2 30.1001 22.1 30.1001 21.9 30.1001C21.7 30.1001 21.5 30.1001 21.4 30.2001C21.2 30.2001 21.1 30.3001 21 30.4001C20.9 30.5001 20.8 30.6001 20.7 30.8001C20.6 31.0001 20.6 31.1001 20.6 31.3001L21.4 31.4001C21.4 31.3001 21.5 31.1001 21.5 31.0001C21.6 30.9001 21.7 30.9001 21.9 30.9001C22 30.9001 22.1 30.9001 22.2 31.0001C22.3 31.1001 22.3 31.2001 22.3 31.3001C22.3 31.4001 22.3 31.5001 22.2 31.6001C22.1 31.7001 22 31.8001 22 31.8001L20.5 33.2001V34.1001H23.3V33.4001H21.5L22.7 32.3001Z" fill="#58595B"/>
<path d="M26 32.3001C26.1 32.2001 26.1001 32.2001 26.2001 32.1001C26.3001 32.0001 26.3 32.0001 26.4 31.9001C26.4 31.8001 26.5 31.7001 26.5 31.6001C26.5 31.5001 26.5 31.4001 26.5 31.3001C26.5 31.1001 26.5 30.9001 26.4 30.8001C26.3 30.7001 26.2 30.5001 26.1 30.4001C26.0001 30.3001 25.8001 30.2001 25.7001 30.2001C25.5001 30.1001 25.4001 30.1001 25.2001 30.1001C25.0001 30.1001 24.8001 30.1001 24.7001 30.2001C24.5001 30.2001 24.4 30.3001 24.3 30.4001C24.2 30.5001 24.1 30.6001 24 30.8001C23.9 31.0001 23.9 31.1001 23.9 31.3001L24.7001 31.4001C24.7001 31.3001 24.8 31.1001 24.8 31.0001C24.9 30.9001 25.0001 30.9001 25.2001 30.9001C25.3001 30.9001 25.4 30.9001 25.5 31.0001C25.6 31.1001 25.6 31.2001 25.6 31.3001C25.6 31.4001 25.6 31.5001 25.5 31.6001C25.4 31.7001 25.3 31.8001 25.3 31.8001L23.8 33.2001V34.1001H26.6V33.4001H24.8L26 32.3001Z" fill="#58595B"/>
<path d="M29.7 30.7C29.6 30.5 29.4 30.3 29.2 30.2C29 30.1 28.8 30 28.5 30C28.2 30 28 30.1 27.8 30.2C27.6 30.3 27.5 30.5 27.3 30.7C27.2 30.9 27.1 31.1 27.1 31.4C27.1 31.6 27 31.9 27 32.1C27 32.3 27 32.6 27.1 32.8C27.1 33 27.2 33.3 27.3 33.5C27.4 33.7 27.6 33.9 27.8 34C28 34.1 28.2 34.2 28.5 34.2C28.8 34.2 29 34.1 29.2 34C29.4 33.9 29.5 33.7 29.7 33.5C29.8 33.3 29.9 33.1 29.9 32.8C29.9 32.6 30 32.3 30 32.1C30 31.9 30 31.6 29.9 31.4C29.8 31.1 29.8 30.9 29.7 30.7ZM29.1 32.5C29.1 32.6 29.1 32.8 29 32.9C29 33 28.9 33.1 28.8 33.2C28.7 33.3 28.6 33.3 28.4 33.3C28.2 33.3 28.1 33.3 28 33.2C28 33.1 28 33 27.9 32.9C27.9 32.8 27.8 32.6 27.8 32.5C27.8 32.4 27.8 32.2 27.8 32.1C27.8 32 27.8 31.9 27.8 31.7C27.8 31.6 27.8 31.4 27.9 31.3C27.9 31.2 28 31.1 28.1 31C28.2 30.9 28.3 30.9 28.5 30.9C28.6 30.9 28.8 30.9 28.9 31C29 31.1 29 31.2 29.1 31.3C29.1 31.4 29.2 31.6 29.2 31.7C29.2 31.8 29.2 32 29.2 32.1C29.1 32.2 29.1 32.3 29.1 32.5Z" fill="#58595B"/>
<path d="M33 30.7C32.9 30.5 32.7 30.3 32.5 30.2C32.3 30.1 32.1 30 31.8 30C31.5 30 31.3 30.1 31.1 30.2C30.9 30.3 30.8 30.5 30.7 30.7C30.6 30.9 30.5 31.1 30.5 31.4C30.5 31.6 30.4 31.9 30.4 32.1C30.4 32.3 30.4 32.6 30.5 32.8C30.5 33 30.6 33.3 30.7 33.5C30.8 33.7 31 33.9 31.1 34C31.3 34.1 31.5 34.2 31.8 34.2C32.1 34.2 32.3 34.1 32.5 34C32.7 33.9 32.8 33.7 33 33.5C33.1 33.3 33.2 33.1 33.2 32.8C33.2 32.6 33.3 32.3 33.3 32.1C33.3 31.9 33.3 31.6 33.2 31.4C33.2 31.1 33.1 30.9 33 30.7ZM32.4 32.5C32.4 32.6 32.4 32.8 32.3 32.9C32.3 33 32.2 33.1 32.1 33.2C32 33.3 31.9 33.3 31.7 33.3C31.5 33.3 31.4 33.3 31.3 33.2C31.2 33.1 31.2 33 31.1 32.9C31.1 32.8 31 32.6 31 32.5C31 32.4 31 32.2 31 32.1C31 32 31 31.9 31 31.7C31 31.6 31 31.4 31.1 31.3C31.1 31.2 31.2 31.1 31.3 31C31.4 30.9 31.5 30.9 31.7 30.9C31.8 30.9 32 30.9 32.1 31C32.2 31.1 32.2 31.2 32.3 31.3C32.3 31.4 32.4 31.6 32.4 31.7C32.4 31.8 32.4 32 32.4 32.1C32.4 32.2 32.4 32.3 32.4 32.5Z" fill="#58595B"/>
<path d="M36.3 30.7C36.2 30.5 36 30.3 35.8 30.2C35.6 30.1 35.4 30 35.1 30C34.8 30 34.6 30.1 34.4 30.2C34.2 30.3 34.1 30.5 33.9 30.7C33.8 30.9 33.7 31.1 33.7 31.4C33.7 31.6 33.6 31.9 33.6 32.1C33.6 32.3 33.6 32.6 33.7 32.8C33.7 33 33.8 33.3 33.9 33.5C34 33.7 34.2 33.9 34.4 34C34.6 34.1 34.8 34.2 35.1 34.2C35.4 34.2 35.6 34.1 35.8 34C36 33.9 36.1 33.7 36.3 33.5C36.4 33.3 36.5 33.1 36.5 32.8C36.5 32.6 36.6 32.3 36.6 32.1C36.6 31.9 36.6 31.6 36.5 31.4C36.5 31.1 36.4 30.9 36.3 30.7ZM35.7 32.5C35.7 32.6 35.7 32.8 35.6 32.9C35.6 33 35.5 33.1 35.4 33.2C35.3 33.3 35.2 33.3 35 33.3C34.8 33.3 34.7 33.3 34.6 33.2C34.5 33.1 34.5 33 34.4 32.9C34.4 32.8 34.3 32.6 34.3 32.5C34.3 32.4 34.3 32.2 34.3 32.1C34.3 32 34.3 31.9 34.3 31.7C34.3 31.6 34.3 31.4 34.4 31.3C34.4 31.2 34.5 31.1 34.6 31C34.7 30.9 34.8 30.9 35 30.9C35.1 30.9 35.3 30.9 35.4 31C35.5 31.1 35.5 31.2 35.6 31.3C35.6 31.4 35.7 31.6 35.7 31.7C35.7 31.8 35.7 32 35.7 32.1C35.7 32.2 35.7 32.3 35.7 32.5Z" fill="#58595B"/>
<path d="M20 40.9999C20.1 40.8999 20.1999 40.7999 20.2999 40.6999C20.3999 40.5999 20.5 40.5999 20.6 40.4999C20.7 40.4999 20.8 40.4999 20.9 40.4999C21 40.4999 21.1 40.5999 21.2 40.5999C21.3 40.6999 21.4 40.6999 21.4 40.7999C21.4999 40.8999 21.5 40.9999 21.5 41.0999L22.1 40.9999C22.1 40.8999 22.1 40.7999 22 40.6999C22 40.5999 21.9 40.4999 21.9 40.4999C21.8 40.3999 21.8 40.3999 21.7 40.2999C21.6 40.1999 21.6 40.1999 21.5 40.0999C21.3 39.9999 21.1 39.8999 20.9 39.8999C20.6999 39.8999 20.4999 39.8999 20.2999 39.8999C20.0999 39.8999 19.8999 39.9999 19.7999 40.0999C19.5999 40.1999 19.5 40.3999 19.4 40.5999C19.3 40.7999 19.2 40.9999 19.2 41.1999C19.2 41.3999 19.2 41.5999 19.2 41.7999C19.3 41.9999 19.3 42.1999 19.5 42.2999C19.6 42.4999 19.8 42.5999 20 42.6999C20.2 42.7999 20.4 42.8999 20.6 42.8999C20.8 42.8999 21 42.8999 21.2 42.7999L20.9 42.1999C20.8 42.2999 20.7 42.2999 20.6 42.2999C20.5 42.2999 20.3999 42.2999 20.2999 42.1999C20.1999 42.0999 20.1 42.0999 20.1 41.9999C20 41.8999 20 41.7999 20 41.6999C20 41.5999 20 41.4999 20 41.2999C19.9 41.2999 19.9 41.0999 20 40.9999Z" fill="#58595B"/>
<path d="M25.5 42.3998L25.6 41.7998L23.7 41.2998L22.9 44.0998L24.9 44.6998L25.1 44.0998L23.7 43.6998L23.9 43.0998L25.1 43.4998L25.3 42.8998L24 42.5998L24.2 41.9998L25.5 42.3998Z" fill="#58595B"/>
<path d="M29.4 42.9001C29.4 42.7001 29.4 42.6001 29.3 42.5001C29.2 42.4001 29.2 42.3001 29.1 42.2001C29 42.1001 28.9 42.1001 28.7 42.1001C28.6 42.1001 28.4 42.1001 28.3 42.1001H27.1V45.1001H27.8V43.9001H28.1L28.7 45.1001H29.5L28.7 43.9001C28.9 43.9001 29.1 43.8001 29.2 43.6001C29.4 43.3001 29.4 43.1001 29.4 42.9001ZM28.7 43.1001L28.6 43.2001C28.5 43.2001 28.5 43.2001 28.4 43.2001C28.3 43.2001 28.3 43.2001 28.2 43.2001H27.8V42.5001H28.2C28.3 42.5001 28.3 42.5001 28.4 42.5001C28.5 42.5001 28.5 42.5001 28.6 42.5001L28.7 42.6001C28.7 42.6001 28.7 42.7001 28.7 42.8001C28.7 43.0001 28.7 43.0001 28.7 43.1001Z" fill="#58595B"/>
<path d="M32.8 41.2998L30.5 41.8998L30.7 42.3998L31.5 42.1998L32.1 44.4998L32.7 44.2998L32.1 41.9998L32.9 41.7998L32.8 41.2998Z" fill="#58595B"/>
<path d="M34.5928 40.407L33.97 40.7266L35.3395 43.3957L35.9623 43.0761L34.5928 40.407Z" fill="#58595B"/>
<path d="M37.5 38.2998L36 39.5998L37.8 41.7998L38.4 41.3998L37.6 40.4998L38.6 39.7998L38.2 39.2998L37.2 40.0998L36.9 39.5998L37.9 38.7998L37.5 38.2998Z" fill="#58595B"/>
<path d="M38.9297 36.6701L38.4956 37.2192L40.8491 39.0795L41.2832 38.5304L38.9297 36.6701Z" fill="#58595B"/>
<path d="M39.8 35.3L42.5 36.6L43.4001 34.7L42.8 34.5L42.2001 35.8L41.7001 35.5L42.2001 34.3L41.7001 34.1L41.1 35.2L40.6 35L41.2001 33.8L40.7001 33.5L39.8 35.3Z" fill="#58595B"/>
<path d="M44.2999 31.5002C44.2999 31.3002 44.2999 31.1002 44.2999 30.9002C44.2999 30.7002 44.1999 30.5002 44.0999 30.3002C43.9999 30.1002 43.9 30.0002 43.7 29.9002C43.5 29.8002 43.2999 29.7002 43.0999 29.7002C42.7999 29.7002 42.6 29.7002 42.4 29.7002C42.2 29.8002 42 29.9002 41.9 30.0002C41.8 30.1002 41.5999 30.3002 41.5999 30.5002C41.4999 30.7002 41.5 30.9002 41.4 31.2002L41.2 32.2002L44.0999 32.7002L44.2999 31.5002ZM43.7 31.5002L43.5999 31.8002L41.9 31.5002L42 31.1002C42 31.0002 42.0999 30.8002 42.0999 30.7002C42.1999 30.6002 42.1999 30.5002 42.2999 30.4002C42.3999 30.3002 42.4999 30.3002 42.5999 30.2002C42.6999 30.2002 42.8 30.2002 43 30.2002C43.2 30.2002 43.3 30.3002 43.4 30.3002C43.5 30.4002 43.5999 30.5002 43.5999 30.6002C43.6999 30.7002 43.7 30.8002 43.7 31.0002C43.7 31.2002 43.7 31.3002 43.7 31.5002Z" fill="#58595B"/>
<path d="M90.8 15.1998C90.5 14.9998 90.1 14.7998 89.6 14.7998C88.8 14.7998 88.1 15.1998 87.7 16.0998C87.3 16.7998 87.2 17.7998 87.2 19.0998C87.2 20.5998 87.5 21.7998 88 22.4998C88.4 22.9998 88.9 23.2998 89.6 23.2998C90.1 23.2998 90.4 23.1998 90.7 22.9998C91.1 22.6998 91.4 22.2998 91.6 21.5998C91.8 20.9998 91.9 20.1998 91.9 19.1998C91.9 17.9998 91.8 17.0998 91.6 16.4998C91.5 15.8998 91.2 15.3998 90.8 15.1998Z" fill="#58595B"/>
<path d="M99.0999 12.5999C99 11.7999 98.2999 11.0999 97.5 11.0999H79.1999C79.1999 11.0999 69.9 9.6999 63.7 19.5999C63 20.6999 56.5999 32.3999 68.0999 41.7999C68.0999 41.7999 66.2 37.5999 67.5 33.4999C69.4 37.7999 73.6999 40.6999 78.6999 40.6999C85.4999 40.6999 91 35.1999 91 28.3999C91 27.9999 91 27.5999 90.9 27.1999C93.5 26.9999 95.9 26.3999 97.4 24.8999C97.6 25.9999 97.6999 27.1999 97.6999 28.3999C97.6999 38.6999 89.2999 46.9999 79.0999 46.9999C68.7999 46.9999 60.5 38.5999 60.5 28.3999C60.5 19.4999 66.6999 12.0999 75.0999 10.1999C74.8999 9.9999 74.7999 9.7999 74.5999 9.5999C74.4999 9.4999 74.3999 9.2999 74.1999 9.1999L70.8 5.8999C64.4 8.6999 61.5999 16.5999 61.5999 16.5999C60.5999 13.6999 58.4 11.6999 58.4 11.6999L55.7 14.3999C58.6 16.2999 60.4 18.9999 61.2 20.2999C60.1 22.7999 59.5 25.4999 59.5 28.2999C59.5 39.1999 68.4 48.0999 79.3 48.0999C90.2 48.0999 99.0999 39.1999 99.0999 28.2999C99.0999 26.6999 98.9 25.0999 98.5 23.5999C98.7999 22.9999 99 22.3999 99.0999 21.5999C99.3999 17.3999 99.2999 14.2999 99.0999 12.5999ZM77.0999 20.3999H77.3C77.5 21.3999 77.9 22.0999 78.4 22.5999C79 23.0999 79.5999 23.3999 80.1999 23.3999C80.6999 23.3999 81.1 23.2999 81.4 22.9999C81.7 22.6999 81.8 22.3999 81.8 22.0999C81.8 21.8999 81.6999 21.6999 81.5999 21.4999C81.4999 21.2999 81.2999 21.0999 81.0999 20.8999C80.8999 20.6999 80.5 20.4999 79.9 20.1999C79.1 19.7999 78.4999 19.4999 78.0999 19.1999C77.6999 18.8999 77.5 18.5999 77.3 18.1999C77.1 17.8999 77 17.4999 77 16.9999C77 16.2999 77.3 15.6999 77.8 15.1999C78.3 14.6999 79 14.3999 79.8 14.3999C80.1 14.3999 80.3999 14.3999 80.6999 14.4999C80.8999 14.5999 81.2 14.6999 81.5 14.7999C81.7999 14.8999 81.9999 14.9999 82.0999 14.9999C82.1999 14.9999 82.3 14.9999 82.4 14.8999C82.5 14.7999 82.4999 14.6999 82.5999 14.3999H82.8L82.9 17.3999H82.5999C82.4999 16.5999 82.1999 15.9999 81.5999 15.5999C81.0999 15.0999 80.5 14.8999 80 14.8999C79.5 14.8999 79.2 14.9999 78.9 15.2999C78.6 15.4999 78.5 15.7999 78.5 16.0999C78.5 16.2999 78.4999 16.4999 78.5999 16.5999C78.6999 16.7999 78.8999 16.9999 79.1999 17.1999C79.3999 17.2999 79.8999 17.5999 80.5999 17.9999C81.6999 18.4999 82.3999 18.9999 82.6999 19.4999C83.0999 19.9999 83.1999 20.4999 83.1999 21.0999C83.1999 21.8999 82.9 22.4999 82.3 22.9999C81.7 23.4999 80.9999 23.7999 80.0999 23.7999C79.7999 23.7999 79.5 23.7999 79.3 23.6999C79 23.5999 78.7 23.4999 78.3 23.3999C78.1 23.2999 77.9 23.2999 77.8 23.2999C77.7 23.2999 77.6 23.2999 77.4 23.3999C77.3 23.4999 77.1999 23.5999 77.0999 23.7999H76.9V20.3999H77.0999ZM71 23.2999H71.3C71.6 23.2999 71.8 23.2999 71.9 23.1999C72 23.0999 72.0999 22.9999 72.1999 22.8999C72.1999 22.7999 72.3 22.4999 72.3 22.0999V16.1999C72.3 15.6999 72.2999 15.4999 72.1999 15.2999C72.1999 15.1999 72.1 15.0999 71.9 14.9999C71.8 14.8999 71.6 14.8999 71.3 14.8999H71V14.6999H75.6999V14.8999H75.4C75.1 14.8999 74.9 14.8999 74.8 14.9999C74.7 15.0999 74.6 15.1999 74.5 15.2999C74.5 15.3999 74.4 15.6999 74.4 16.0999V21.9999C74.4 22.4999 74.4 22.7999 74.5 22.8999C74.6 22.9999 74.7 23.0999 74.8 23.1999C74.9 23.2999 75.2 23.2999 75.4 23.2999H75.6999V23.4999H71V23.2999ZM90.3 28.3999C90.3 34.7999 85.0999 39.9999 78.6999 39.9999C73.7999 39.9999 69.5 36.8999 67.9 32.4999C68.1 31.9999 68.4 31.4999 68.8 30.9999C72.3 26.2999 77.2999 27.1999 83.0999 27.1999C85.1999 27.1999 87.7999 27.3999 90.1999 27.1999C90.2999 27.5999 90.3 27.9999 90.3 28.3999ZM93.4 21.9999C92.5 23.1999 91.2999 23.6999 89.5999 23.6999C88 23.6999 86.7 23.0999 85.8 21.9999C85.1 21.0999 84.6999 20.0999 84.6999 18.8999C84.6999 17.5999 85.1999 16.3999 86.0999 15.4999C86.9999 14.5999 88.0999 14.1999 89.5 14.1999C90.9 14.0999 92.0999 14.5999 93 15.4999C93.9 16.3999 94.4 17.4999 94.4 18.8999C94.4 20.1999 94.1 21.1999 93.4 21.9999Z" fill="#58595B"/>
<path d="M70.8 40.9999C70.9 40.8999 71 40.7999 71.1 40.6999C71.2 40.5999 71.3 40.5999 71.4 40.4999C71.5 40.4999 71.6 40.4999 71.7 40.4999C71.8 40.4999 71.9 40.5999 72 40.5999C72.1 40.6999 72.2 40.6999 72.2 40.7999C72.3 40.8999 72.3 40.9999 72.3 41.0999L72.9 40.9999C72.9 40.8999 72.9 40.7999 72.8 40.6999C72.8 40.5999 72.7 40.4999 72.7 40.4999C72.6 40.3999 72.6 40.3999 72.5 40.2999C72.4 40.1999 72.4 40.1999 72.3 40.0999C72.1 39.9999 71.9 39.8999 71.7 39.8999C71.5 39.8999 71.3 39.8999 71.1 39.8999C70.9 39.8999 70.7 39.9999 70.6 40.0999C70.4 40.1999 70.3 40.3999 70.2 40.5999C70.1 40.7999 70 40.9999 70 41.1999C70 41.3999 70 41.5999 70 41.7999C70.1 41.9999 70.1 42.1999 70.3 42.2999C70.4 42.4999 70.6 42.5999 70.8 42.6999C71 42.7999 71.2 42.8999 71.4 42.8999C71.6 42.8999 71.8 42.8999 72 42.7999L71.7 42.1999C71.6 42.2999 71.5 42.2999 71.4 42.2999C71.3 42.2999 71.2 42.2999 71.1 42.1999C71 42.0999 70.9 42.0999 70.9 41.9999C70.8 41.8999 70.8 41.7999 70.8 41.6999C70.8 41.5999 70.8 41.4999 70.8 41.2999C70.6 41.2999 70.7 41.0999 70.8 40.9999Z" fill="#58595B"/>
<path d="M76.3 42.3998L76.4 41.7998L74.5 41.2998L73.7 44.0998L75.7 44.6998L75.9 44.0998L74.5 43.6998L74.6 43.0998L75.9 43.4998L76 42.8998L74.8 42.5998L74.9 41.9998L76.3 42.3998Z" fill="#58595B"/>
<path d="M80.2 42.9001C80.2 42.7001 80.2 42.6001 80.1 42.5001C80 42.4001 80 42.3001 79.9 42.2001C79.8 42.1001 79.7 42.1001 79.5 42.1001C79.4 42.1001 79.2 42.1001 79.1 42.1001H77.9V45.1001H78.6V43.9001H78.9L79.5 45.1001H80.3L79.5 43.9001C79.7 43.9001 79.9 43.8001 80 43.6001C80.1 43.3001 80.2 43.1001 80.2 42.9001ZM79.5 43.1001L79.4 43.2001C79.3 43.2001 79.3 43.2001 79.2 43.2001C79.1 43.2001 79.1 43.2001 79 43.2001H78.6V42.5001H79C79.1 42.5001 79.1 42.5001 79.2 42.5001C79.3 42.5001 79.3 42.5001 79.4 42.5001L79.5 42.6001C79.5 42.6001 79.5 42.7001 79.5 42.8001C79.5 43.0001 79.5 43.0001 79.5 43.1001Z" fill="#58595B"/>
<path d="M83.6 41.2998L81.3 41.8998L81.4 42.3998L82.2 42.1998L82.9 44.4998L83.5 44.2998L82.9 41.9998L83.7 41.7998L83.6 41.2998Z" fill="#58595B"/>
<path d="M85.3895 40.3963L84.7667 40.7158L86.1362 43.3849L86.759 43.0654L85.3895 40.3963Z" fill="#58595B"/>
<path d="M88.3 38.2998L86.7 39.5998L88.6 41.7998L89.1 41.3998L88.4 40.4998L89.3 39.7998L89 39.2998L88 40.0998L87.6 39.5998L88.7 38.7998L88.3 38.2998Z" fill="#58595B"/>
<path d="M89.7192 36.6491L89.2852 37.1982L91.6387 39.0585L92.0727 38.5094L89.7192 36.6491Z" fill="#58595B"/>
<path d="M90.6 35.3L93.2 36.6L94.2 34.7L93.6 34.5L93 35.8L92.4 35.5L93 34.3L92.5 34.1L91.9 35.2L91.4 35L92 33.8L91.4 33.5L90.6 35.3Z" fill="#58595B"/>
<path d="M95 31.5002C95 31.3002 95 31.1002 95 30.9002C95 30.7002 94.9 30.5002 94.8 30.3002C94.7 30.1002 94.6 30.0002 94.4 29.9002C94.2 29.8002 94 29.7002 93.8 29.7002C93.5 29.7002 93.3 29.7002 93.1 29.7002C92.9 29.8002 92.7 29.9002 92.6 30.0002C92.5 30.1002 92.3 30.3002 92.3 30.5002C92.2 30.7002 92.2 30.9002 92.1 31.2002L91.9 32.2002L94.8 32.7002L95 31.5002ZM94.4 31.5002L94.3 31.8002L92.6 31.5002L92.7 31.1002C92.7 31.0002 92.8 30.8002 92.8 30.7002C92.9 30.6002 92.9 30.5002 93 30.4002C93.1 30.3002 93.2 30.3002 93.3 30.2002C93.4 30.2002 93.5 30.2002 93.7 30.2002C93.9 30.2002 94 30.3002 94.1 30.3002C94.2 30.4002 94.3 30.5002 94.3 30.6002C94.4 30.7002 94.4 30.8002 94.4 31.0002C94.5 31.2002 94.5 31.3002 94.4 31.5002Z" fill="#58595B"/>
<path d="M75.8 30.5001C75.7 30.4001 75.5 30.3001 75.3 30.2001C75.1 30.1001 74.9 30.1001 74.7 30.1001C74.5 30.1001 74.3 30.1001 74.1 30.2001C73.9 30.3001 73.8 30.4001 73.6 30.5001C73.5 30.6001 73.4 30.8001 73.3 30.9001C73.2 31.1001 73.2 31.2001 73.2 31.5001C73.2 31.7001 73.2 31.8001 73.3 32.0001C73.4 32.2001 73.4 32.3001 73.5 32.4001C73.6 32.5001 73.7 32.6001 73.9 32.7001C74.1 32.8001 74.2 32.8001 74.4 32.8001H74.5H74.6L73.7 34.2001H74.7L75.6 32.9001C75.7 32.8001 75.7 32.7001 75.8 32.6001C75.9 32.5001 75.9 32.4001 75.9 32.3001C75.9 32.2001 76 32.1001 76 32.0001C76 31.9001 76 31.8001 76 31.6001C76 31.4001 76 31.2001 75.9 31.0001C76.1 30.8001 76 30.6001 75.8 30.5001ZM75.3 32.0001C75.2 32.1001 75 32.2001 74.8 32.2001C74.6 32.2001 74.5 32.1001 74.3 32.0001C74.2 31.9001 74.1 31.7001 74.1 31.6001C74.1 31.4001 74.2 31.3001 74.3 31.2001C74.4 31.1001 74.6 31.0001 74.8 31.0001C75 31.0001 75.1 31.1001 75.3 31.2001C75.4 31.3001 75.5 31.5001 75.5 31.6001C75.4 31.7001 75.4 31.8001 75.3 32.0001Z" fill="#58595B"/>
<path d="M79.2 30.8001C79.1 30.6001 78.9 30.4001 78.8 30.3001C78.6 30.2001 78.4 30.1001 78.1 30.1001C77.8 30.1001 77.6 30.2001 77.4 30.3001C77.2 30.4001 77.1 30.6001 77 30.8001C76.9 31.0001 76.8 31.2001 76.8 31.5001C76.8 31.7001 76.7 32.0001 76.7 32.2001C76.7 32.4001 76.7 32.7001 76.8 32.9001C76.8 33.1001 76.9 33.4001 77 33.6001C77.1 33.8001 77.3 34.0001 77.4 34.1001C77.6 34.2001 77.8 34.3001 78.1 34.3001C78.4 34.3001 78.6 34.2001 78.8 34.1001C79 34.0001 79.1 33.8001 79.2 33.6001C79.3 33.4001 79.4 33.2001 79.4 32.9001C79.4 32.7001 79.5 32.4001 79.5 32.2001C79.5 32.0001 79.5 31.7001 79.4 31.5001C79.4 31.2001 79.3 31.0001 79.2 30.8001ZM78.7 32.5001C78.7 32.6001 78.7 32.8001 78.6 32.9001C78.6 33.0001 78.5 33.1001 78.4 33.2001C78.3 33.3001 78.2 33.3001 78.1 33.3001C77.9 33.3001 77.8 33.3001 77.7 33.2001C77.6 33.1001 77.6 33.0001 77.5 32.9001C77.5 32.8001 77.4 32.6001 77.4 32.5001C77.4 32.4001 77.4 32.2001 77.4 32.1001C77.4 32.0001 77.4 31.9001 77.4 31.7001C77.4 31.6001 77.4 31.4001 77.5 31.3001C77.5 31.2001 77.6 31.1001 77.7 31.0001C77.8 30.9001 77.9 30.9001 78.1 30.9001C78.2 30.9001 78.4 30.9001 78.4 31.0001C78.5 31.1001 78.5 31.2001 78.6 31.3001C78.6 31.4001 78.7 31.6001 78.7 31.7001C78.7 31.8001 78.7 32.0001 78.7 32.1001C78.7 32.3001 78.7 32.4001 78.7 32.5001Z" fill="#58595B"/>
<path d="M82.5 30.8001C82.4 30.6001 82.2 30.4001 82.1 30.3001C81.9 30.2001 81.7 30.1001 81.4 30.1001C81.1 30.1001 80.9 30.2001 80.7 30.3001C80.5 30.4001 80.4 30.6001 80.3 30.8001C80.1 31.0001 80 31.2001 80 31.5001C80 31.7001 79.9 32.0001 79.9 32.2001C79.9 32.4001 79.9 32.7001 80 32.9001C80 33.1001 80.1 33.4001 80.2 33.6001C80.3 33.8001 80.5 34.0001 80.6 34.1001C80.8 34.2001 81 34.3001 81.3 34.3001C81.6 34.3001 81.8 34.2001 82 34.1001C82.2 34.0001 82.3 33.8001 82.4 33.6001C82.5 33.4001 82.6 33.2001 82.6 32.9001C82.6 32.7001 82.7 32.4001 82.7 32.2001C82.7 32.0001 82.7 31.7001 82.6 31.5001C82.7 31.2001 82.6 31.0001 82.5 30.8001ZM82 32.5001C82 32.6001 82 32.8001 81.9 32.9001C81.9 33.0001 81.8 33.1001 81.7 33.2001C81.6 33.3001 81.5 33.3001 81.4 33.3001C81.2 33.3001 81.1 33.3001 81 33.2001C80.9 33.1001 80.9 33.0001 80.8 32.9001C80.8 32.8001 80.7 32.6001 80.7 32.5001C80.7 32.4001 80.7 32.2001 80.7 32.1001C80.7 32.0001 80.7 31.9001 80.7 31.7001C80.7 31.6001 80.7 31.4001 80.8 31.3001C80.8 31.2001 80.9 31.1001 81 31.0001C81.1 30.9001 81.2 30.9001 81.4 30.9001C81.5 30.9001 81.7 30.9001 81.7 31.0001C81.8 31.1001 81.8 31.2001 81.9 31.3001C81.9 31.4001 82 31.6001 82 31.7001C82 31.8001 82 32.0001 82 32.1001C82 32.3001 82 32.4001 82 32.5001Z" fill="#58595B"/>
<path d="M83.3 31.3002L83.8 31.8002L84.6 31.1002V34.1002H85.4V30.2002H84.6L83.3 31.3002Z" fill="#58595B"/>
</svg>
