<svg width="144" height="50" viewBox="0 0 144 50" fill="none" xmlns="http://www.w3.org/2000/svg">
<path d="M92.2 24.1C95.8 24.1 99.4 24 103 24C103.3 24 103.7 24 103.9 23.8C104.7 23 105.4 22.2 106.2 21.3H88.3V29.2H86.5V21.1C82.9 21 79.4 21 76 21.6C73.2 22 71.4 23.9 69.7 26C69 26.8 68.5 27.6 67.7 28.7V21.2C65.8 21.2 63.9 21.1 62.1 21.2C60.5 21.3 58.9 21.3 57.3 21.7C52.9 22.8 50.1 25.7 48.6 29.9C48.2 31.1 47.8 32.2 47.5 33.4C47.1 34.9 46.7001 36.5 46.3 38.2C46.6 38.2 46.8 38.2 47.1 38.2H47.6C47.7 38.2 47.8001 38.2 47.9001 38.2C48.1001 38.2 48.3 38.2 48.5 38.2H48.9001L50 34.8C50.2001 34.3 50.4001 33.7 50.5 33.2L50.6 32.9C50.8 32.4 51.1001 32.2 51.7001 32.2C55.9001 32.2 60 32.2 64.2 32.2C64.5 32.2 64.7 32.2 65.1 32.3V38C65.7 38 66.2 38 66.7 38C66.9 38 67.1001 38 67.3001 38H67.9001L69.4 32.7C69.6 32.2 69.9 32 70.5 32.1C74.7 32.1 78.8 32.1 83 32.1C83.3 32.1 83.6 32.1 84 32.2V38.2H86.6V32H88.3V38.1H91.1V32.1C91.5 32.1 91.8 32.1 92.1 32.1C94.3 32.1 96.6001 32.1 98.8 32C99.1001 32 99.4 32 99.6 31.9C100.4 31.1 101.1 30.3 102 29.4H91.2V24.1C91.6 24.1 91.9 24.1 92.2 24.1ZM65.2 29.2H52.2001C52.7001 27.6 53.7001 26.5 55 25.7C56.6 24.6 58.4 24.1 60.3 24C61.9 23.9 63.5 24 65.1 24V29.2H65.2ZM83.8 29.2H70.6C71.2 28.3 71.7001 27.5 72.3 26.8C73.7001 25.2 75.6 24.4 77.7 24.2C79.7 23.9 81.7001 23.9 83.8 23.8V29.2ZM134.7 22.3C131.7 20.9 128.5 20.7 125.3 21.8C121.8 23 119.8 26 119.7 30C119.7 33.5 121.8 36.7 125.1 37.8C126.4 38.2 127.9 38.4 129 38.6C130.4 38.4 131.5 38.4 132.5 38.2C136.2 37.4 138.7 34.8 139.1 31.3C139.6 27.2 138 23.9 134.7 22.3ZM136.6 30.2C136.4 32.9 134.5 35 131.6 35.6C130.8 35.7 130 35.8 129.3 35.9C127.2 35.8 125.2 35.4 123.7 33.7C120.7 30.2 122.5 24.9 127.1 23.9C128.9 23.5 130.6 23.6 132.3 24.1C135.3 25.1 136.8 27.3 136.6 30.2ZM120.1 36.1C120.9 36.8 121.6 37.5 122.5 38.5C121.2 38.5 120.1 38.5 119 38.5C116.8 38.5 114.6 38.5 112.4 38.6C107.1 38.7 103 34.3 103.7 28.6C104.2 24.3 107.5 21.5 112 21.3C115.2 21.2 118.5 21.2 121.7 21.2C121.8 21.2 121.9 21.2 122.1 21.3C121.4 22.2 120.8 23 120.1 23.8C119.9 24 119.5 24.1 119.2 24.1C117 24.1 114.7 24 112.5 24C108.2 24 105.3 28 106.7 32.2C107.4 34.2 109.5 35.7 111.8 35.7C114.1 35.7 116.5 35.7 118.8 35.7C119.3 35.6 119.8 35.9 120.1 36.1ZM16.2 16.8V13.9C16.6 13.7 16.7 13.3 16.7 13.3V12.1H15.6V9.1L19.7 14.1H19.8V14L15.5 8.9C15.5 8.9 15.5 8.9 15.4 8.9H15.3C15.2 8.9 15.2 8.9 15.2 9V12.2H15V9.4C15 9.4 15 9.4 15 9.3L13.2 7.2H13.1V7.3L14.8 9.3V11.9H13.6V12C13.6 12 13.5 12.6 13.6 13C13.7 13.3 13.8 13.5 13.9 13.5V16.7C12.3 17.2 11.2 18.7 11.2 20.4C11.2 22.6 13 24.3 15.1 24.3C17.3 24.3 19 22.5 19 20.4C19 18.8 17.9 17.3 16.2 16.8ZM14.8 20.3H11.4C11.5 18.8 12.5 17.5 14 17H14.1V13.6V13.5H14C14 13.5 13.8 13.4 13.7 13.1C13.6 12.8 13.7 12.4 13.7 12.2H14.8V20.3ZM15.4 20.3H15V12.3H15.5V20.3H15.4ZM15.6 20.3V12.3H16.5V13.3C16.5 13.4 16.4 13.7 16.1 13.8H16V17H16.1C17.6 17.4 18.7 18.8 18.8 20.3H15.6ZM48.4001 17.4C48.4001 10.6 42.9001 5 36 5C32.2001 5 28.9 6.7 26.6 9.3C24.3 6.7 21 5 17.2 5C10.4 5 4.80005 10.6 4.80005 17.4C4.80005 23.5 9.30005 28.6 15.1 29.6C14.9 30.5 14.7 31.5 14.7 32.6C14.7 39.4 20.3 45 27.1 45C33.9 45 39.5 39.4 39.5 32.6C39.5 31.5 39.4 30.5 39.1 29.4C44.5 28 48.4001 23.2 48.4001 17.4ZM5.40005 17.4C5.40005 10.9 10.7 5.6 17.2 5.6C20.8 5.6 24.1 7.2 26.2001 9.8C24.6 11.9 23.6 14.5 23.6 17.4C23.6 18.5 23.7001 19.5 24 20.6C19.8 21.7 16.4 24.9 15.2 29.1C9.60005 28.1 5.40005 23.3 5.40005 17.4ZM26.2001 25C24 27.6 20.8 29.2 17.2 29.2C16.7 29.2 16.3 29.2 15.8 29.1C17 25.2 20.2001 22.1 24.2001 21.1C24.6 22.5 25.3001 23.9 26.2001 25ZM29.1 20.9C33.5 21.6 37.1001 24.8 38.4001 29C37.6001 29.2 36.8 29.2 36 29.2C32.4 29.2 29.1 27.6 27 25C27.9 23.8 28.7 22.4 29.1 20.9ZM28.7001 20.3C28.2001 20.2 27.7 20.2 27.1 20.2C26.2 20.2 25.4 20.3 24.6 20.5C24.3 19.5 24.2001 18.5 24.2001 17.5C24.2001 14.8 25.1 12.3 26.6 10.3C28.1 12.3 29 14.8 29 17.5C29 18.4 28.9001 19.3 28.7001 20.3ZM39 32.6C39 38.8 34.1 44 28 44.4L27.4 32.4C27.6 32.1 27.9 31.8 28.5 31.8C29.5 31.7 30.5 31.8 32.7001 32.4C33.5 32.6 34.0001 32.8 34.4001 32.8V33.3L32.7001 36.2H32.3C32.7 37.5 34.5 37.3 34.5 37.3C36.4 37.4 36.8 36.2 36.8 36.2H36.5L34.6 33.3V32.7C35 32.7 35.1 32.6 35.3 32.4C35.5 32.1 35.3001 31.9 35.2001 31.9C35.1 31.9 34.9001 31.9 34.9001 32.1C34.9001 32.1 34.9 32.4 34.6 32.4C34.6 32.4 34.6 32.4 34.5 32.4H34.4001C34.3001 32.4 34.1001 32.4 33.9001 32.3C32.9001 32 31.5 31.3 29.7001 31C28.4001 30.8 27.8 31 27.5 31.1V31C27.5 30.9 27.4 30.8 27.3 30.8C27.2 30.8 27.1 30.9 27.1 31V31.3C26.8 31.2 26.2 31 24.9 31.2C23 31.5 21.6 32.1 20.7 32.5C20.4 32.6 20.2 32.6 20.1 32.6C20.1 32.6 20.1 32.6 20 32.6C19.8 32.5 19.8 32.3 19.8 32.3C19.8 32.1 19.6 32.1 19.5 32.1C19.4 32.1 19.2 32.3 19.4 32.6C19.5 32.7 19.6 32.9 19.9 32.9V33.4L18 36.2H17.6C18 37.5 19.8 37.3 19.8 37.3C21.7 37.4 22.1 36.2 22.1 36.2H21.8L19.9 33.3V32.7C20.3 32.7 20.8001 32.5 21.7001 32.3C23.8001 31.6 24.8 31.6 25.9 31.7C26.4 31.8 26.8 32 27 32.3L26.4 44.3C20.3 43.8 15.5 38.7 15.5 32.5C15.5 31.5 15.6 30.6 15.9 29.6C16.4 29.7 16.9 29.7 17.5 29.7C21.3 29.7 24.6 28 26.9 25.4C29.2 28.1 32.5 29.7 36.3 29.7C37.2001 29.7 38 29.6 38.8 29.4C38.8 30.5 39 31.5 39 32.6ZM34.2001 36.2H32.7001L34.1 33.7L34.2001 36.2ZM34.4001 33.7L36.1 36.2H34.4001V33.7ZM19.7 36.2H18.2L19.6 33.7L19.7 36.2ZM19.9 33.7L21.6 36.2H19.9V33.7ZM41.1 21.7C41.5 22.8 41.8 23.9 42 24.8C41.2001 26.6 40.9001 28 40.9001 28L41.2001 27.9C41 28 40.8 28.1 40.5 28.2C40.7001 27.8 41.4 25.2 41.1 21.7ZM42 27.6C41.9001 27.7 41.8 27.7 41.7001 27.8C41.8 27.3 42 26.7 42.1 26.3C42.1 26.7 42 27.2 42 27.6ZM42.2001 27.5C42.3 27 42.3 26.5 42.3 26C42.4 26.6 42.4001 27.1 42.5 27.3C42.4001 27.4 42.3 27.5 42.2001 27.5ZM42.6 27.2C42.6 26.8 42.5 26.2 42.3 25.4C43.9 21.4 46.5 19.4 46.5 19.4C44.5 20.6 43.2001 22.4 42.3 24.1C42.5 19.3 42 16.9 41.6 16C42.3 15.8 42.4001 15.3 42.4001 15.3L42.3 15.1L42.4001 14.8L42.1 14.6C42.1 14.6 42.2001 14.5 42.2001 14.4C42.2001 14.3 42 14.2 42 14.2L42.1 14L42.2001 13.7L41.9001 13.6L42 13.2L41.8 13V12.8L41.7001 12.5L41.8 12.2L41.6 12V11.7L41.3 11.6V11.2H41.1L40.9001 10.8L40.7001 10.9L40.5 11.3H40V11.5L39.9001 11.7V11.9L39.8 12.1L40 12.3V12.5L40.1 12.7L40 13L40.2001 13.1L40 13.3L40.2001 13.5L40.1 13.7L40.3 14L40.2001 14.3L40.3 14.5V14.7L40.5 15V15.2L40.7001 15.4L40.6 15.5C40.6 15.5 40.9001 16.2 41.7001 16.1C42 17 42.6 19.4 42.3 24.5C42.1 23.5 41.7001 22.3 41.2001 21C40.9001 18.2 40 14.9 37.9001 11.8C38.5 11.5 38.6 11 38.6 11H38.3V10.8H38V10.5L37.8 10.4L37.9001 10.1L37.7001 10V9.7L37.5 9.6V9.4L37.3 9.5L37 9.2C37 9.2 36.9001 9.1 36.9001 9V8.8L36.7001 8.7V8.5L36.5 8.4V8.2L36.3 8.1V7.8H36L35.8 7.5L35.6 7.7L35.4001 7.2L35.3 7.3L35.2001 7.1L35 7.8L34.5 7.9C34.5 7.9 34.5001 8.2 34.4001 8.2L34.7001 8.3L34.5 8.4L34.7001 8.5L34.6 8.7H34.8V9L35 9.1V9.3C35 9.3 35.3001 9.4 35.2001 9.4L35 9.6L35.2001 9.7V9.9L35.5 10V10.2L35.7001 10.3L35.6 10.5H35.8L35.6 10.8H36L35.9001 11H36V11.2L36.3 11.3L36.2001 11.5L36.5 11.7V11.9C36.5 11.9 36.9001 12.2 37.5 11.9C39.5 14.7 40.4 17.8 40.8 20.4C40 18.7 38.8 16.8 37.1 15.3C37.5 14.8 37.3 14.2 37.3 14.2H37V14L36.8 13.9V13.6L36.4001 13.4L36.3 13.2L36 13.1V13L35.7001 12.9L35.6 12.7L35.3 12.6V12.3L35.1 12.2L34.9001 11.9L34.5 12L34.2001 11.8L34.1 12.2L33.8 12.3L33.9001 12.6V12.8L34.3 13V13.3L34.6 13.5V13.8L34.9001 14.1V14.4L35.3 14.5L35.2001 14.7L35.7001 14.9L35.6 15.2L36 15.4C36.4 15.6 36.8 15.5 37 15.4C38.9001 17.1 40.1001 19.2 40.9001 21.1C40.9001 21.4 41 21.8 41 22.1C40.5 21.4 38 18.4 34.2001 17.5C34.2001 17.5 40.2001 20.3 41 24.5C40.9001 26.8 40.5 28.3 40.5 28.3H40.6C40.1 28.5 39.6 28.7 39 28.8C37.6 24.4 33.9 21.1 29.3 20.3C29.5 19.4 29.7001 18.4 29.7001 17.3C29.7001 14.4 28.7 11.8 27.1 9.7C29.3 7.1 32.5 5.5 36.1 5.5C42.6 5.5 47.9001 10.8 47.9001 17.3C47.9001 21.5 45.8 25.1 42.6 27.2ZM46.2001 44.1L45.9001 45H45.5L46.6 42.3H47L48.1 45H47.7001L47.4001 44.1H46.2001ZM47.2001 43.8L46.9001 43C46.8001 42.8 46.8 42.7 46.7001 42.5C46.7001 42.7 46.6 42.8 46.5 43L46.2001 43.8H47.2001ZM48.5 44.6C48.6 44.7 48.8 44.7 49.1 44.7C49.4 44.7 49.5 44.6 49.5 44.4C49.5 44.2 49.4 44.1 49.1 44C48.7 43.9 48.5 43.7 48.5 43.4C48.5 43.1 48.8 42.8 49.3 42.8C49.5 42.8 49.7001 42.9 49.9001 42.9L49.8 43.2C49.7001 43.2 49.5 43.1 49.3 43.1C49.1 43.1 48.9001 43.2 48.9001 43.4C48.9001 43.6 49 43.6 49.3 43.7C49.7001 43.8 49.9001 44 49.9001 44.3C49.9001 44.6 49.6 44.9 49 44.9C48.7001 44.9 48.5 44.8 48.4001 44.8L48.5 44.6ZM50.5 44.6C50.6 44.7 50.8 44.7 51.1 44.7C51.4 44.7 51.5 44.6 51.5 44.4C51.5 44.2 51.4 44.1 51.1 44C50.7 43.9 50.5 43.7 50.5 43.4C50.5 43.1 50.8 42.8 51.3 42.8C51.5 42.8 51.7001 42.9 51.9001 42.9L51.8 43.2C51.7001 43.2 51.5 43.1 51.3 43.1C51.1 43.1 50.9001 43.2 50.9001 43.4C50.9001 43.6 51 43.6 51.3 43.7C51.7001 43.8 51.9001 44 51.9001 44.3C51.9001 44.6 51.6 44.9 51 44.9C50.7001 44.9 50.5 44.8 50.4001 44.8L50.5 44.6ZM54.5 44C54.5 44.7 53.9001 45 53.4001 45C52.8001 45 52.3 44.6 52.3 44C52.3 43.3 52.8001 43 53.4001 43C54.1001 42.9 54.5 43.3 54.5 44ZM52.7001 44C52.7001 44.4 53 44.8 53.4001 44.8C53.8001 44.8 54.1 44.5 54.1 44C54.1 43.7 53.9001 43.2 53.4001 43.2C52.9001 43.2 52.7001 43.6 52.7001 44ZM56.8 44.9C56.7001 44.9 56.4 45 56.1 45C55.4 45 55 44.6 55 44C55 43.4 55.5 43 56.2001 43C56.4001 43 56.7001 43.1 56.8 43.1L56.7001 43.4C56.6001 43.4 56.4001 43.3 56.2001 43.3C55.7001 43.3 55.4001 43.6 55.4001 44C55.4001 44.5 55.7001 44.7 56.2001 44.7C56.4001 44.7 56.6001 44.6 56.7001 44.6L56.8 44.9ZM57.8 42.4C57.8 42.5 57.7001 42.6 57.5 42.6C57.4001 42.6 57.2001 42.5 57.2001 42.4C57.2001 42.3 57.3 42.2 57.5 42.2C57.7001 42.2 57.8 42.3 57.8 42.4ZM57.3 43H57.7001V45H57.3V43ZM59.6 45V44.8C59.5 45 59.2001 45.1 58.9001 45.1C58.4001 45.1 58.2001 44.8 58.2001 44.5C58.2001 44 58.7 43.8 59.6 43.8C59.6 43.6 59.5 43.3 59.1 43.3C58.9 43.3 58.7001 43.4 58.5 43.4L58.4001 43.2C58.6001 43.1 58.9001 43 59.2001 43C59.9001 43 60.1 43.4 60.1 43.8V44.5C60.1 44.7 60.1 44.8 60.1 45H59.6ZM59.6 43.9C59.1 43.9 58.6 44 58.6 44.3C58.6 44.5 58.8 44.6 59 44.6C59.3 44.6 59.5 44.4 59.6 44.3V44.2V43.9ZM60.8 42.4V43H61.4001V43.3H60.8V44.4C60.8 44.6 60.9 44.8 61.1 44.8C61.2 44.8 61.3 44.8 61.3 44.8V45.1C61.2001 45.1 61.1001 45.1 60.9001 45.1C60.7001 45.1 60.5 45 60.4001 44.9C60.3001 44.8 60.2001 44.6 60.2001 44.4V43.3H60V43H60.4001V42.5L60.8 42.4ZM62.4001 42.4C62.4001 42.5 62.3 42.6 62.1 42.6C62 42.6 61.8 42.5 61.8 42.4C61.8 42.3 61.9 42.2 62.1 42.2C62.3 42.2 62.4001 42.3 62.4001 42.4ZM61.9001 43H62.3V45H61.9001V43ZM65 44C65 44.7 64.4001 45 63.9001 45C63.3001 45 62.8 44.6 62.8 44C62.8 43.3 63.3001 43 63.9001 43C64.5 42.9 65 43.3 65 44ZM63.1 44C63.1 44.4 63.4 44.8 63.8 44.8C64.2001 44.8 64.5 44.5 64.5 44C64.5 43.7 64.3 43.2 63.8 43.2C63.4 43.2 63.1 43.6 63.1 44ZM65.6 43.5C65.6 43.3 65.6 43.1 65.6 43H66V43.3C66.1 43.1 66.4001 42.9 66.8001 42.9C67.1001 42.9 67.6 43.1 67.6 43.7V45H67.2V43.9C67.2 43.6 67.1 43.3 66.7 43.3C66.4 43.3 66.2 43.5 66.1 43.7C66.1 43.7 66.1 43.8 66.1 43.9V45H65.7V43.5H65.6ZM71.5 44C71.5 44.7 70.9 45 70.4 45C69.8 45 69.3 44.6 69.3 44C69.3 43.3 69.8 43 70.4 43C71.1 42.9 71.5 43.3 71.5 44ZM69.7 44C69.7 44.4 70 44.8 70.4 44.8C70.8 44.8 71.1 44.5 71.1 44C71.1 43.7 70.9 43.2 70.4 43.2C69.9 43.2 69.7 43.6 69.7 44ZM72.1 45V43.3H71.8V43H72.1V42.9C72.1 42.6 72.2001 42.4 72.4 42.2C72.6 42.1 72.8 42 73 42C73.1 42 73.3 42 73.4 42.1L73.3 42.4C73.2001 42.4 73.2 42.4 73 42.4C72.6 42.4 72.6 42.7 72.6 43H73V43.3H72.4V45H72.1ZM75.3 43.9L74.9 44.9H74.4L75.7 41.6H76.3L77.6 44.9H77.1L76.7 43.9H75.3ZM76.6 43.6L76.2 42.7C76.1 42.5 76.1 42.3 76 42.1C75.9 42.3 75.9 42.5 75.8 42.7L75.4 43.6H76.6ZM77.8 43.5C77.8 43.3 77.8 43.1 77.8 43H78.2V43.3C78.3 43.1 78.5 42.9 78.9 42.9C79.2001 42.9 79.5 43.1 79.6 43.3C79.7 43.2 79.8 43.1 79.9 43C80 42.9 80.2001 42.9 80.4 42.9C80.7001 42.9 81.2 43.1 81.2 43.8V45H80.8V43.9C80.8 43.5 80.6001 43.3 80.3 43.3C80.1001 43.3 79.9 43.5 79.8 43.6C79.8 43.6 79.8 43.7 79.8 43.8V45H79.4V43.8C79.4 43.5 79.2001 43.3 78.9 43.3C78.6 43.3 78.4 43.5 78.4 43.7C78.4 43.8 78.4 43.8 78.4 43.9V45H78V43.5H77.8ZM82 44C82 44.5 82.4 44.7 82.8 44.7C83.1001 44.7 83.3 44.7 83.4 44.6L83.5 44.9C83.4 45 83.1 45 82.7 45C82 45 81.6 44.6 81.6 44C81.6 43.4 82 42.9 82.7 42.9C83.5 42.9 83.7 43.5 83.7 43.8C83.7 43.9 83.7 43.9 83.7 44H82ZM83.2 43.8C83.2 43.6 83.1 43.2 82.6 43.2C82.2 43.2 82 43.5 82 43.8H83.2ZM84.1 43.6C84.1 43.4 84.1 43.2 84.1 43H84.5V43.4C84.6 43.1 84.9 43 85.1 43H85.2V43.3H85.1C84.8 43.3 84.6 43.5 84.5 43.8C84.5 43.8 84.5 43.9 84.5 44V45H84.1V43.6ZM86.3 42.4C86.3 42.5 86.2 42.6 86 42.6C85.9 42.6 85.7 42.5 85.7 42.4C85.7 42.3 85.8 42.2 86 42.2C86.2 42.2 86.3 42.3 86.3 42.4ZM85.8 43H86.2V45H85.8V43ZM88.5 44.9C88.4 44.9 88.1001 45 87.8 45C87.1001 45 86.7 44.6 86.7 44C86.7 43.4 87.2001 43 87.9 43C88.1 43 88.4 43.1 88.5 43.1L88.4 43.4C88.3 43.4 88.1 43.3 87.9 43.3C87.4 43.3 87.1 43.6 87.1 44C87.1 44.5 87.4 44.7 87.9 44.7C88.1 44.7 88.3 44.6 88.4 44.6L88.5 44.9ZM90.3 45V44.8C90.2001 45 89.9 45.1 89.6 45.1C89.1 45.1 88.9 44.8 88.9 44.5C88.9 44 89.4 43.8 90.3 43.8C90.3 43.6 90.2001 43.3 89.8 43.3C89.6001 43.3 89.4 43.4 89.2 43.4L89 43.1C89.2 43 89.5 42.9 89.8 42.9C90.5 42.9 90.7 43.3 90.7 43.7V44.4C90.7 44.6 90.7 44.7 90.7 44.9H90.3V45ZM90.2 43.9C89.7 43.9 89.2 44 89.2 44.3C89.2 44.5 89.4 44.6 89.6 44.6C89.9 44.6 90.1 44.4 90.2 44.3V44.2V43.9ZM91.1 43.5C91.1 43.3 91.1 43.1 91.1 43H91.5V43.3C91.6 43.1 91.9 42.9 92.3 42.9C92.6001 42.9 93.1 43.1 93.1 43.7V45H92.7V43.9C92.7 43.6 92.6 43.3 92.2 43.3C91.9 43.3 91.7 43.5 91.6 43.7C91.6 43.7 91.6 43.8 91.6 43.9V45H91.2V43.5H91.1ZM95 41.5H97.2V41.9H95.5V43H97V43.4H95.5V45H95V41.5ZM97.5 44C97.5 44.5 97.9 44.7 98.3 44.7C98.6001 44.7 98.8 44.7 98.9 44.6L99 44.9C98.9 45 98.6 45 98.2 45C97.5 45 97.1 44.6 97.1 44C97.1 43.4 97.5 42.9 98.2 42.9C99 42.9 99.2 43.5 99.2 43.8C99.2 43.9 99.2 43.9 99.2 44H97.5ZM98.7 43.8C98.7 43.6 98.6 43.2 98.1 43.2C97.7 43.2 97.5 43.5 97.5 43.8H98.7ZM99.9 44C99.9 44.5 100.3 44.7 100.7 44.7C101 44.7 101.2 44.7 101.3 44.6L101.4 44.9C101.3 45 101 45 100.6 45C99.9 45 99.5 44.6 99.5 44C99.5 43.4 99.9 42.9 100.6 42.9C101.4 42.9 101.6 43.5 101.6 43.8C101.6 43.9 101.6 43.9 101.6 44H99.9ZM101.1 43.8C101.1 43.6 101 43.2 100.5 43.2C100.1 43.2 99.9 43.5 99.9 43.8H101.1ZM103.9 41.6L103.8 44.5C103.8 44.7 103.8 44.9 103.8 45H103.4V44.7C103.3 44.9 103 45.1 102.6 45.1C102 45.1 101.6 44.7 101.6 44.1C101.6 43.4 102.1 43 102.6 43C103 43 103.2 43.1 103.3 43.3L103.4 41.6H103.9ZM103.4 43.8C103.4 43.8 103.4 43.7 103.4 43.6C103.3 43.4 103.1 43.2 102.8 43.2C102.4 43.2 102.1 43.5 102.1 44C102.1 44.4 102.3 44.7 102.8 44.7C103.1 44.7 103.3 44.5 103.4 44.3C103.4 44.3 103.4 44.2 103.4 44.1V43.8ZM108.6 44.8C108.4 44.9 108 45 107.6 45C106.5 45 105.7 44.4 105.7 43.3C105.7 42.3 106.5 41.5 107.7 41.5C108.2 41.5 108.5 41.6 108.6 41.7L108.5 42.1C108.3 42 108 42 107.7 42C106.8 42 106.2 42.5 106.2 43.4C106.2 44.2 106.7 44.7 107.7 44.7C108 44.7 108.3 44.6 108.5 44.6L108.6 44.8ZM111.2 44C111.2 44.7 110.6 45 110.1 45C109.5 45 109 44.6 109 44C109 43.3 109.5 43 110.1 43C110.8 42.9 111.2 43.3 111.2 44ZM109.4 44C109.4 44.4 109.7 44.8 110.1 44.8C110.5 44.8 110.8 44.5 110.8 44C110.8 43.7 110.6 43.2 110.1 43.2C109.6 43.2 109.4 43.6 109.4 44ZM111.7 43.5C111.7 43.3 111.7 43.1 111.7 43H112.1V43.3C112.2 43.1 112.5 42.9 112.9 42.9C113.2 42.9 113.7 43.1 113.7 43.7V45H113.3V43.9C113.3 43.6 113.2 43.3 112.8 43.3C112.5 43.3 112.3 43.5 112.2 43.7C112.2 43.7 112.2 43.8 112.2 43.9V45H111.8V43.5H111.7ZM114.8 42.4V43H115.4V43.3H114.8V44.4C114.8 44.6 114.9 44.8 115.1 44.8C115.2 44.8 115.3 44.8 115.3 44.8V45.1C115.2 45.1 115.1 45.1 114.9 45.1C114.7 45.1 114.5 45 114.4 44.9C114.3 44.8 114.2 44.6 114.2 44.4V43.3H114V43H114.4V42.5L114.8 42.4ZM116.2 43.6C116.2 43.4 116.2 43.2 116.2 43H116.6V43.4C116.7 43.1 117 43 117.2 43H117.3V43.3H117.2C116.9 43.3 116.7 43.5 116.6 43.8C116.6 43.8 116.6 43.9 116.6 44V45H116.2V43.6ZM119.9 44C119.9 44.7 119.3 45 118.8 45C118.2 45 117.7 44.6 117.7 44C117.7 43.3 118.2 43 118.8 43C119.4 42.9 119.9 43.3 119.9 44ZM118 44C118 44.4 118.3 44.8 118.7 44.8C119.1 44.8 119.4 44.5 119.4 44C119.4 43.7 119.2 43.2 118.7 43.2C118.3 43.2 118 43.6 118 44ZM120.5 42.1H120.9V45H120.5V42.1ZM126.2 43.2C126.2 44.4 125.4 45 124.3 45C123.2 45 122.5 44.3 122.5 43.3C122.5 42.2 123.3 41.5 124.4 41.5C125.5 41.4 126.2 42.2 126.2 43.2ZM123.1 43.2C123.1 43.9 123.6 44.6 124.4 44.6C125.2 44.6 125.7 44 125.7 43.2C125.7 42.5 125.3 41.8 124.4 41.8C123.5 41.8 123.1 42.5 123.1 43.2ZM128.3 42.6C128.3 42 128.7 41.6 129.3 41.6C129.3 41.6 129.3 41.6 129.3 41.7C129.3 41.8 129.3 41.9 129.2 42C128.8 42 128.7 42.3 128.7 42.6V42.7H129V43H128.7V45H128.3V43H128V42.7H128.3V42.6ZM126.9 42.6C126.9 42 127.3 41.6 127.9 41.6C127.9 41.6 127.9 41.6 127.9 41.7C127.9 41.8 127.9 41.9 127.8 42C127.4 42 127.3 42.3 127.3 42.6V42.7H127.6V43H127.3V45H126.9V43H126.6V42.7H126.9V42.6ZM130.1 43V45H129.7V43.6C129.7 43.4 129.7 43.3 129.7 43.1H130.1V43ZM132.1 44.9C132 44.9 131.7 45 131.4 45C130.7 45 130.3 44.6 130.3 44C130.3 43.4 130.8 43 131.5 43C131.7 43 132 43.1 132.1 43.1L132 43.4C131.9 43.4 131.7 43.3 131.5 43.3C131 43.3 130.7 43.6 130.7 44C130.7 44.5 131 44.7 131.5 44.7C131.7 44.7 131.9 44.6 132 44.6L132.1 44.9ZM133.1 42.1C133.1 42.2 133 42.3 132.8 42.3C132.7 42.3 132.5 42.2 132.5 42.1C132.5 42 132.6 41.9 132.8 41.9C133 41.8 133.1 41.9 133.1 42.1ZM130.1 42.1C130.1 42.2 130 42.3 129.8 42.3C129.7 42.3 129.5 42.2 129.5 42.1C129.5 42 129.6 41.9 129.8 41.9C130 41.8 130.1 41.9 130.1 42.1ZM132.7 43H133.1V45H132.7V43ZM134.9 45V44.8C134.8 45 134.5 45.1 134.2 45.1C133.7 45.1 133.5 44.8 133.5 44.5C133.5 44 134 43.8 134.9 43.8C134.9 43.6 134.8 43.3 134.4 43.3C134.2 43.3 134 43.4 133.8 43.4L133.7 43.2C133.9 43.1 134.2 43 134.5 43C135.2 43 135.4 43.4 135.4 43.8V44.5C135.4 44.7 135.4 44.8 135.4 45H134.9ZM134.8 43.9C134.3 43.9 133.8 44 133.8 44.3C133.8 44.5 134 44.6 134.2 44.6C134.5 44.6 134.7 44.4 134.8 44.3V44.2V43.9ZM135.7 42.1H136.1V45H135.7V42.1ZM136.7 44.6C136.8 44.7 137 44.7 137.3 44.7C137.6 44.7 137.7 44.6 137.7 44.4C137.7 44.2 137.6 44.1 137.3 44C136.9 43.9 136.7 43.7 136.7 43.4C136.7 43.1 137 42.8 137.5 42.8C137.7 42.8 137.9 42.9 138.1 42.9L138 43.2C137.9 43.2 137.7 43.1 137.5 43.1C137.3 43.1 137.1 43.2 137.1 43.4C137.1 43.6 137.2 43.6 137.5 43.7C137.9 43.8 138.1 44 138.1 44.3C138.1 44.6 137.8 44.9 137.2 44.9C136.9 44.9 136.7 44.8 136.6 44.8L136.7 44.6Z" fill="#535353"/>
</svg>
