<svg width="21" height="20" viewBox="0 0 21 20" fill="none" xmlns="http://www.w3.org/2000/svg">
<path d="M10.561 7C9.76535 7 9.00229 7.31607 8.43968 7.87868C7.87707 8.44129 7.561 9.20435 7.561 10C7.561 10.7956 7.87707 11.5587 8.43968 12.1213C9.00229 12.6839 9.76535 13 10.561 13C11.3566 13 12.1197 12.6839 12.6823 12.1213C13.2449 11.5587 13.561 10.7956 13.561 10C13.561 9.20435 13.2449 8.44129 12.6823 7.87868C12.1197 7.31607 11.3566 7 10.561 7ZM10.561 5C11.8871 5 13.1588 5.52678 14.0965 6.46447C15.0342 7.40215 15.561 8.67392 15.561 10C15.561 11.3261 15.0342 12.5979 14.0965 13.5355C13.1588 14.4732 11.8871 15 10.561 15C9.23492 15 7.96315 14.4732 7.02546 13.5355C6.08778 12.5979 5.561 11.3261 5.561 10C5.561 8.67392 6.08778 7.40215 7.02546 6.46447C7.96315 5.52678 9.23492 5 10.561 5ZM17.061 4.75C17.061 5.08152 16.9293 5.39946 16.6949 5.63388C16.4605 5.8683 16.1425 6 15.811 6C15.4795 6 15.1615 5.8683 14.9271 5.63388C14.6927 5.39946 14.561 5.08152 14.561 4.75C14.561 4.41848 14.6927 4.10054 14.9271 3.86612C15.1615 3.6317 15.4795 3.5 15.811 3.5C16.1425 3.5 16.4605 3.6317 16.6949 3.86612C16.9293 4.10054 17.061 4.41848 17.061 4.75ZM10.561 2C8.087 2 7.683 2.007 6.532 2.058C5.748 2.095 5.222 2.2 4.734 2.39C4.32561 2.53994 3.95641 2.78026 3.654 3.093C3.341 3.3954 3.10035 3.76458 2.95 4.173C2.76 4.663 2.655 5.188 2.619 5.971C2.567 7.075 2.56 7.461 2.56 10C2.56 12.475 2.567 12.878 2.618 14.029C2.655 14.812 2.76 15.339 2.949 15.826C3.119 16.261 3.319 16.574 3.651 16.906C3.988 17.242 4.301 17.443 4.731 17.609C5.225 17.8 5.751 17.906 6.531 17.942C7.635 17.994 8.021 18 10.56 18C13.035 18 13.438 17.993 14.589 17.942C15.371 17.905 15.897 17.8 16.386 17.611C16.794 17.4603 17.1631 17.2201 17.466 16.908C17.803 16.572 18.004 16.259 18.17 15.828C18.36 15.336 18.466 14.81 18.502 14.028C18.554 12.925 18.56 12.538 18.56 10C18.56 7.526 18.553 7.122 18.502 5.971C18.465 5.189 18.359 4.661 18.17 4.173C18.0193 3.76502 17.779 3.39598 17.467 3.093C17.1647 2.77985 16.7955 2.53917 16.387 2.389C15.897 2.199 15.371 2.094 14.589 2.058C13.486 2.006 13.1 2 10.56 2M10.56 0C13.277 0 13.616 0.00999994 14.683 0.0599999C15.747 0.11 16.473 0.277 17.11 0.525C17.77 0.779 18.326 1.123 18.882 1.678C19.3905 2.1779 19.784 2.78259 20.035 3.45C20.282 4.087 20.45 4.813 20.5 5.878C20.547 6.944 20.56 7.283 20.56 10C20.56 12.717 20.55 13.056 20.5 14.122C20.45 15.187 20.282 15.912 20.035 16.55C19.7846 17.2178 19.3911 17.8226 18.882 18.322C18.382 18.8303 17.7773 19.2238 17.11 19.475C16.473 19.722 15.747 19.89 14.683 19.94C13.616 19.987 13.277 20 10.56 20C7.843 20 7.504 19.99 6.437 19.94C5.373 19.89 4.648 19.722 4.01 19.475C3.34232 19.2245 2.73752 18.8309 2.238 18.322C1.72943 17.8222 1.33596 17.2175 1.085 16.55C0.836998 15.913 0.669997 15.187 0.619998 14.122C0.571998 13.056 0.559998 12.717 0.559998 10C0.559998 7.283 0.569998 6.944 0.619998 5.878C0.669997 4.813 0.836998 4.088 1.085 3.45C1.33523 2.78218 1.7288 2.17732 2.238 1.678C2.73767 1.16923 3.34243 0.775729 4.01 0.525C4.647 0.277 5.372 0.11 6.437 0.0599999C7.505 0.0129999 7.844 0 10.561 0" fill="#535353"/>
</svg>
