<svg width="120" height="120" viewBox="0 0 120 120" fill="none" xmlns="http://www.w3.org/2000/svg">
<circle cx="60" cy="60" r="59" stroke="#F18F41" stroke-width="2"/>
<g clip-path="url(#clip0_76_466)">
<path d="M30 44.4057C30.1331 43.667 30.2292 42.9135 30.4067 42.1896C31.6047 37.3215 34.7919 34.4996 39.5911 33.4506C43.2959 32.6454 46.9785 33.0148 50.6242 33.8421C56.9098 35.2826 62.7 37.8977 68.1352 41.3474C68.4753 41.5691 68.9338 41.6873 69.3405 41.7094C70.3536 41.7611 71.3667 41.7168 72.3798 41.7316C73.1119 41.7316 73.4816 42.0418 73.4816 42.6106C73.4816 43.1795 73.1119 43.5045 72.3946 43.5119C71.3889 43.5267 70.3758 43.5119 69.3405 43.5119V48.1141C69.5624 48.1141 69.7916 48.1141 70.0209 48.1141C73.5112 48.1141 77.009 48.1141 80.4993 48.1141C81.9118 48.1141 82.4072 48.4834 82.8361 49.8279C83.3981 51.5934 85.0324 52.5907 86.6371 52.1548C88.3748 51.6821 89.5358 49.754 89.0773 48.0254C88.9812 47.6635 88.7594 47.2941 88.5153 47.006C87.798 46.1786 87.7685 45.4178 88.5227 44.6347C89.0552 44.0955 89.1883 43.438 89.1883 42.7215C89.1883 41.3031 87.9533 39.7814 86.5261 39.4342C85.2172 39.1165 83.7605 39.8626 83.0801 41.1997C83.0062 41.3401 82.9396 41.4878 82.8879 41.6355C82.2815 43.305 82.0079 43.5045 80.2553 43.5045C79.0869 43.5045 77.9111 43.5414 76.7428 43.4749C76.4322 43.4602 76.0476 43.1942 75.8702 42.9209C75.7445 42.7288 75.8258 42.2561 75.9885 42.0714C76.1808 41.8572 76.5653 41.739 76.8759 41.7316C77.9259 41.6946 78.976 41.702 80.0335 41.7168C80.6768 41.7242 81.054 41.5321 81.3054 40.8525C82.2741 38.2744 85.062 36.9595 87.4875 37.8607C90.1052 38.8284 91.6064 41.8276 90.719 44.391C90.5489 44.8859 90.2383 45.3365 89.9795 45.8314C91.3328 47.5526 91.5324 50.2711 89.4397 52.4503C86.8293 55.154 82.4812 54.2158 81.2536 50.6552C81.0466 50.0569 80.7286 49.8944 80.174 49.8944C76.4839 49.8944 72.7939 49.8944 69.0965 49.9091C68.8081 49.9091 68.4827 50.0495 68.2313 50.212C64.2677 52.7754 60.0452 54.8142 55.5935 56.3803C55.4456 56.432 55.2977 56.4911 55.1424 56.5354C54.5213 56.7201 54.0554 56.5132 53.8853 55.9814C53.7226 55.4938 53.9741 55.0654 54.5656 54.8438C55.4013 54.5335 56.2443 54.2454 57.0725 53.9204C60.5703 52.5537 63.9127 50.8695 67.0777 48.838C67.3957 48.6312 67.5362 48.4243 67.5288 48.0328C67.4992 46.5258 67.5288 45.0115 67.4992 43.5045C67.4992 43.2829 67.3291 42.9726 67.1443 42.8544C61.2506 39.1018 54.9576 36.3168 48.0286 35.157C44.871 34.6325 41.706 34.5291 38.6076 35.5559C34.607 36.8856 32.4847 39.7592 31.9153 43.8591C31.6638 45.6837 31.7378 47.5083 32.2111 49.296C33.2685 53.3072 35.975 55.5677 39.9239 56.432C43.2442 57.1559 46.5496 56.8161 49.8403 56.1439C50.077 56.0996 50.3062 56.0331 50.5355 55.9888C51.127 55.878 51.5855 56.1365 51.6891 56.6388C51.8 57.1633 51.5338 57.5992 50.9348 57.7247C49.9661 57.9316 48.9973 58.131 48.0138 58.2788C44.908 58.7368 41.8096 58.8106 38.7407 57.9833C33.8231 56.6684 30.6064 52.864 30.1109 47.7816C30.0961 47.6044 30.037 47.4345 30 47.2645C30 46.3116 30 45.3587 30 44.4057ZM30 68.1258C30.4141 69.9874 31.5233 71.3023 33.0836 72.3661C34.5035 73.3338 34.4591 74.6635 33.128 75.7568C32.6104 76.1852 32.0558 76.5693 31.5677 77.0347C30.6803 77.8842 30.2884 78.9997 30 80.1669C30 80.6027 30 81.0386 30 81.4744C30.0444 81.6443 30.0887 81.8142 30.1331 81.9915C30.6729 84.2446 31.9374 85.855 34.2151 86.5272C35.7828 86.9852 37.2322 86.5789 38.6002 85.7811C41.2993 84.2224 43.9984 82.6785 46.6828 81.0977C47.1856 80.8022 47.5258 80.8022 47.999 81.1641C48.7829 81.7699 49.6259 82.2944 50.4615 82.8262C51.0235 83.1808 51.519 83.0626 51.8 82.5899C52.0662 82.1392 51.9183 81.6739 51.4007 81.3267C50.4837 80.7061 49.5667 80.0782 48.6498 79.4503C47.8733 78.9111 47.0747 78.8593 46.2465 79.31C46.0542 79.4134 45.8693 79.5242 45.6771 79.635C42.9484 81.2085 40.2271 82.7967 37.4836 84.3554C36.1303 85.1236 34.7401 85.1754 33.4682 84.1929C32.1741 83.1956 31.6269 81.8364 31.8857 80.2038C32.0706 79.0293 32.7731 78.1945 33.7196 77.5371C34.7253 76.8427 35.5757 76.0079 35.8271 74.7595C36.1821 73.0161 35.3243 71.7899 34.008 70.7852C33.5495 70.438 33.0615 70.1056 32.6991 69.6771C31.6121 68.3918 31.5085 66.9365 32.2406 65.4517C32.9431 64.026 34.0893 63.1321 35.7384 63.2651C36.4409 63.3242 37.1656 63.6123 37.7942 63.9595C40.582 65.5182 43.3403 67.1138 46.0912 68.739C47.0747 69.3226 47.9473 69.293 48.8273 68.5691C49.16 68.2884 49.515 68.0372 49.8847 67.7934C55.7932 63.8856 62.2933 62.423 69.311 63.0878C70.08 63.1617 70.8417 63.3094 71.6107 63.3833C72.1358 63.435 72.5203 63.1247 72.6017 62.652C72.6756 62.1866 72.3946 61.7951 71.877 61.6547C71.7439 61.6178 71.6034 61.5956 71.4702 61.5734C68.2165 61.0194 64.9554 60.9677 61.6943 61.4552C56.6066 62.2087 51.9183 63.9669 47.8142 67.1212C47.4814 67.3797 47.2595 67.3502 46.9268 67.1581C44.102 65.5108 41.2771 63.8561 38.4301 62.2531C35.1912 60.4284 31.5529 61.8541 30.3623 65.3926C30.244 65.7472 30.1405 66.1018 30.0296 66.4563C30.0296 67.0104 30.0296 67.5718 30.0296 68.1258H30ZM67.9429 85.168C63.543 85.4117 59.2836 84.7469 55.172 83.1513C54.5361 82.9075 54.011 83.107 53.841 83.6241C53.6709 84.1338 53.9223 84.5696 54.5361 84.8134C57.5827 86.0175 60.7477 86.7414 64.0162 86.9409C71.9583 87.4137 79.1461 85.1901 85.6609 80.7061C87.5688 79.3912 89.2992 77.8842 90.4676 75.8232C91.1331 74.6487 91.2071 73.4298 90.438 72.3291C89.6468 71.1989 88.7963 70.076 87.7833 69.1526C84.5073 66.1682 80.6103 64.2328 76.4396 62.8293C75.5078 62.5116 75.0124 62.6298 74.8127 63.1986C74.5983 63.8117 74.9236 64.1959 75.8776 64.5357C76.8907 64.8903 77.8964 65.2744 78.9612 65.6585C73.1637 70.3568 73.208 77.8178 78.9242 82.4717C75.3673 84.0008 71.7439 84.9611 67.9503 85.1754L67.9429 85.168ZM88.6263 75.4243C87.6575 76.4955 86.711 77.6183 85.587 78.4974C84.2042 79.5759 82.6512 80.4402 81.1575 81.371C81.0096 81.467 80.6768 81.467 80.5437 81.371C78.2661 79.6941 76.654 77.5888 76.4174 74.6561C76.2177 72.1149 77.1791 70.0022 78.9021 68.1997C79.3901 67.6826 79.9595 67.2394 80.5141 66.7961C80.6472 66.6927 80.9356 66.6484 81.0761 66.7223C83.7013 68.1111 86.1638 69.7288 88.1234 72.0041C88.6411 72.6024 89.1143 73.2451 89.2252 74.2424C89.07 74.5674 88.9442 75.0845 88.6337 75.4317L88.6263 75.4243ZM61.8496 73.186C60.5185 73.2304 59.9565 74.0355 60.304 75.2987C61.4946 79.6572 65.2216 82.2427 69.7029 81.8216C70.9526 81.7034 71.559 80.8539 71.1671 79.6645C70.6494 78.1059 70.398 76.5102 70.2723 74.8851C70.1835 73.644 69.7103 73.2082 68.4532 73.1786C67.3809 73.1565 66.3086 73.1786 65.2364 73.1786C64.105 73.1786 62.9736 73.1491 61.8422 73.186H61.8496ZM68.3792 74.9885C68.6824 76.658 68.9856 78.3275 69.2888 79.9896C66.2569 80.5436 62.4855 77.9433 62.1675 74.9885H68.3718H68.3792ZM40.6042 75.055C41.3954 75.055 42.1867 75.055 42.9779 75.055C43.5991 75.055 43.9762 74.7373 43.9984 74.2202C44.028 73.6957 43.6361 73.2968 43.0001 73.2821C41.3954 73.2303 39.7982 73.2008 38.1935 73.1786C37.5723 73.1712 37.1508 73.5628 37.1656 74.0873C37.173 74.5896 37.5575 74.9368 38.1713 74.9516C38.9847 74.9737 39.7908 74.9516 40.6042 74.9516V75.055ZM42.0758 76.6654C40.656 77.2563 39.2362 77.8695 37.8311 78.49C37.3135 78.719 37.1286 79.1992 37.3135 79.6572C37.4984 80.1078 37.9938 80.3368 38.5041 80.1226C39.9461 79.5242 41.3807 78.9111 42.7931 78.2536C43.0667 78.128 43.2368 77.7734 43.3477 77.6405C43.3329 76.7762 42.7265 76.392 42.0684 76.658L42.0758 76.6654ZM37.7868 68.6282C37.6093 69.1009 37.9051 69.4629 38.3488 69.6697C39.6355 70.2829 40.9148 70.896 42.2089 71.5018C42.7931 71.7751 43.3107 71.6347 43.5399 71.1767C43.784 70.6892 43.5547 70.1868 42.9484 69.8914C41.6986 69.293 40.4489 68.702 39.1992 68.1111C39.0217 68.0298 38.8294 67.9781 38.4819 67.8525C38.2674 68.0889 37.9199 68.3179 37.8016 68.6355L37.7868 68.6282ZM82.6364 70.1795C82.5551 69.618 82.1632 69.4038 81.2388 69.426C80.6029 69.4407 80.2257 69.7215 80.174 70.2312C80.1148 70.8221 80.5881 71.2137 81.3793 71.2137C82.2593 71.2137 82.7326 70.8295 82.6438 70.1795H82.6364Z" fill="#F18F41"/>
</g>
<defs>
<clipPath id="clip0_76_466">
<rect width="61" height="54" fill="white" transform="translate(30 33)"/>
</clipPath>
</defs>
</svg>
