<svg width="121" height="120" viewBox="0 0 121 120" fill="none" xmlns="http://www.w3.org/2000/svg">
<circle cx="60.5" cy="60" r="59" stroke="#F18F41" stroke-width="2"/>
<path d="M27.5 81.4088C27.8274 80.9189 28.2907 80.7609 28.8737 80.7767C29.7682 80.8083 30.6706 80.7846 31.653 80.7846C31.653 80.4843 31.653 80.2393 31.653 79.9944C31.6769 77.8924 31.5811 75.7826 31.7488 73.6886C32.1002 69.3346 35.5104 65.7945 39.887 65.1228C40.4141 65.0438 40.4939 64.8383 40.4939 64.3958C40.4939 63.9533 40.5019 63.4871 40.6537 63.0841C40.9172 62.3729 41.5482 62.0805 42.2909 62.0647C43.3212 62.0489 44.3514 62.0489 45.3817 62.0647C46.4439 62.0805 47.0269 62.6732 47.2505 63.6847H49.1033V56.0434C48.688 56.0434 48.2887 56.0434 47.8894 56.0434C46.2602 56.0434 44.6229 56.0592 42.9937 56.0355C40.6217 55.996 38.7689 54.1706 38.705 51.8237C38.689 51.1679 38.705 50.5199 38.705 49.7929C38.2737 49.7929 37.9143 49.8087 37.5549 49.7929C36.9879 49.7613 36.6125 49.3899 36.5966 48.8763C36.5806 48.3706 36.948 47.9676 37.507 47.8965C37.6747 47.8728 37.8504 47.8886 38.0182 47.8886C48.0252 47.8886 58.0322 47.8886 68.0472 47.8886C68.2229 47.8886 68.3906 47.8807 68.5583 47.8965C69.1094 47.9518 69.5007 48.3548 69.5007 48.8447C69.5007 49.3662 69.0934 49.7692 68.4944 49.7929C68.159 49.8087 67.8156 49.7929 67.4003 49.7929C67.4003 50.3777 67.4003 50.9071 67.4003 51.4286C67.3763 54.2497 65.5554 56.0355 62.7122 56.0434C60.8674 56.0434 59.0145 56.0434 57.1697 56.0434C57.1297 56.0434 57.0898 56.0592 56.986 56.0829V63.653H58.16C58.1919 63.3686 58.2318 63.0604 58.2718 62.7522C58.5833 60.3105 60.5 58.4535 62.9918 58.3034C64.5571 58.2086 66.1225 58.256 67.6958 58.2639C68.3667 58.2639 68.758 58.659 68.75 59.22C68.75 59.7811 68.3587 60.1446 67.6798 60.1604C66.3301 60.1762 64.9724 60.1604 63.6227 60.1683C61.4983 60.192 60.1566 61.5116 60.1566 63.6056C60.1486 69.8956 60.1566 76.1856 60.1566 82.4756C60.1566 82.6415 60.1726 82.8075 60.1885 83.0524H60.9712C66.4898 83.0524 72.0085 83.0524 77.5271 83.0524C77.7667 83.0524 78.0063 83.0366 78.2379 83.0682C78.749 83.1473 79.0445 83.4554 79.0685 83.9691C79.0924 84.4906 78.797 84.8067 78.3018 84.9252C78.0941 84.9726 77.8785 84.9568 77.6629 84.9568C73.5419 84.9568 69.4129 84.9568 65.2919 84.9568H64.4772C64.4772 85.3361 64.4533 85.6838 64.4772 86.0315C64.621 87.6672 63.7505 89.1212 61.5063 88.9473C61.2507 88.9236 60.9872 88.9473 60.7316 88.9473C59.1583 88.9236 58.2239 87.9991 58.2159 86.4266C58.2079 82.3887 58.2159 78.3508 58.2159 74.3128C58.2159 73.8071 58.2159 73.3014 58.2159 72.7482H47.2585C46.9949 74.0837 46.0525 74.4393 44.7907 74.3682C44.0399 74.3286 43.2892 74.3682 42.5385 74.3602C41.1409 74.3523 40.5099 73.7202 40.4939 72.3215C40.4939 72.1082 40.4939 71.9027 40.4939 71.6894C39.3519 71.7605 38.1539 73.009 38.0741 74.3682C37.9782 76.0592 38.0261 77.766 38.0102 79.4649C38.0102 79.8837 38.0102 80.3026 38.0102 80.7767C39.0085 80.7767 39.9349 80.7767 40.8533 80.7767C41.7239 80.7846 42.0673 81.1244 42.0753 81.9699C42.0753 82.8391 42.0833 83.7162 42.0753 84.5854C42.0433 87.035 40.2064 88.892 37.7147 88.9315C35.7819 88.9631 33.8492 88.9631 31.9165 88.9315C29.7921 88.8999 28.2028 87.6514 27.6438 85.6285C27.6198 85.5337 27.5639 85.4388 27.516 85.344C27.516 84.0244 27.516 82.7127 27.516 81.393L27.5 81.4088ZM40.6217 49.8245C40.6217 50.4014 40.6217 50.9071 40.6217 51.4207C40.6217 53.1987 41.5641 54.139 43.3531 54.139C46.4678 54.139 49.5825 54.139 52.6972 54.139C56.0915 54.139 59.4857 54.139 62.872 54.139C64.0699 54.139 65.0363 53.5622 65.2839 52.5191C65.4915 51.6578 65.4436 50.7333 65.5155 49.8324H40.6217V49.8245ZM58.16 70.7727V65.676H47.2744V70.7727H58.16ZM29.4407 82.7285C29.4407 83.4554 29.4167 84.1192 29.4407 84.7751C29.5046 86.0236 30.5029 87.0113 31.7887 87.0272C33.7853 87.0588 35.7819 87.0509 37.7786 87.0272C38.9366 87.0113 39.9109 86.2053 40.0707 85.0754C40.1745 84.3168 40.0866 83.5266 40.0866 82.7285H29.4407ZM36.0615 80.7609C36.0615 78.8881 36.0615 77.0864 36.0615 75.2769C36.0615 72.4006 37.3712 70.6068 40.1026 69.6902C40.2464 69.6428 40.454 69.4768 40.462 69.3504C40.4939 68.576 40.478 67.8016 40.478 66.9956C40.2703 67.0035 40.1665 66.9956 40.0627 67.0193C37.0837 67.5013 34.3045 69.8719 33.8812 72.8352C33.5138 75.3954 33.6815 78.0347 33.6096 80.6344C33.6096 80.666 33.6576 80.7056 33.6895 80.7451H36.0615V80.7609ZM54.9574 63.6926V56.0987H51.1319V63.6926H54.9574ZM42.4586 64.0086V72.4243H45.2379V64.0086H42.4586ZM60.2205 85.0042C59.885 86.8928 60.1406 87.1852 61.9615 87.043C61.9855 87.043 62.0094 87.043 62.0254 87.043C62.1931 86.8928 62.4806 86.7506 62.4966 86.5767C62.5605 86.0631 62.5206 85.5337 62.5206 85.0121H60.2205V85.0042ZM93.484 87.1536C92.9969 88.4969 92.0225 88.9473 90.6009 88.9947C88.1251 89.0817 87.0549 88.0939 87.2626 85.6759C87.2786 85.4705 87.2466 85.2571 87.2386 84.9805C85.857 84.9805 84.5152 84.9805 83.1655 84.9805C82.1273 84.9805 81.6481 84.6803 81.6481 84.0165C81.6481 83.3606 82.1273 83.0682 83.1655 83.0682C85.6972 83.0682 88.2369 83.0682 90.7686 83.0682H91.5593V82.3492C91.5593 77.3946 91.5593 72.448 91.5593 67.4934C91.5593 63.1868 88.5564 60.2078 84.1958 60.1841C82.6464 60.1762 81.105 60.1841 79.5557 60.1841C77.2795 60.1841 75.0034 60.1841 72.7273 60.1841C71.7928 60.1841 71.3376 59.8601 71.3376 59.2279C71.3376 58.5958 71.8008 58.2718 72.7273 58.2718C76.5687 58.2718 80.4182 58.2639 84.2597 58.2718C89.0036 58.2876 92.5576 61.2587 93.3962 65.8893C93.4121 65.9683 93.4601 66.0394 93.5 66.1185V87.1615L93.484 87.1536ZM91.5513 85.0121H89.2033C89.2033 85.5495 89.2033 86.0552 89.2033 86.5609C89.2033 87.0113 89.5148 87.1141 89.8502 87.0351C90.4172 86.9007 91.144 87.4381 91.5433 86.64C91.5593 86.6083 91.5433 86.553 91.5433 86.5135C91.5433 86.0315 91.5433 85.5495 91.5433 85.0121H91.5513ZM57.1617 41.6934C57.1457 37.6792 61.091 35.0162 64.6929 36.4386C66.2742 37.0628 66.5298 38.659 65.212 39.7495C63.6467 41.0375 62.0733 42.3176 60.516 43.6136C59.893 44.1351 59.2302 44.3801 58.4475 44.0798C57.6568 43.7795 57.3374 43.1316 57.2495 42.3414C57.2176 42.0648 57.1776 41.7961 57.1697 41.6934H57.1617ZM59.1822 42.2149C60.8354 40.8558 62.4008 39.5678 64.03 38.2244C62.5286 37.7345 61.2827 37.9557 60.2205 38.9356C59.31 39.789 58.9666 40.8558 59.1742 42.207L59.1822 42.2149ZM56.1314 34.874C56.1314 38.0822 53.2643 40.6503 50.1416 40.2631C48.7679 40.0893 48.0332 38.7617 48.72 37.5764C49.8301 35.6642 50.9642 33.7677 52.1382 31.8949C52.8809 30.7017 54.4543 30.7096 55.2449 31.8712C55.8599 32.772 56.1554 33.7835 56.1394 34.874H56.1314ZM53.7035 33.017C52.6014 34.8503 51.5712 36.565 50.5169 38.3113C51.7229 38.4378 52.9209 37.8609 53.5997 36.8258C54.3824 35.6405 54.3984 34.3998 53.7035 33.0091V33.017ZM44.5031 45.9842C41.3645 46 38.8567 43.4397 38.9765 40.35C39.0404 38.6985 40.478 37.9083 41.9235 38.7459C43.7364 39.7969 45.5414 40.8558 47.3383 41.9384C48.736 42.776 48.72 44.3801 47.3224 45.2177C46.4598 45.7313 45.5254 46 44.5111 45.9921L44.5031 45.9842ZM46.348 43.5741C44.4952 42.4836 42.7541 41.4563 40.9013 40.3659C40.9652 41.8198 41.4923 42.8629 42.6104 43.5425C43.7764 44.2536 44.9903 44.2457 46.348 43.5741ZM67.3683 80.35C66.6416 80.35 65.9068 80.3658 65.1801 80.35C63.8623 80.3105 63.1834 79.6151 63.1675 78.3112C63.1595 77.6317 63.1515 76.9521 63.1755 76.2725C63.2154 75.2611 63.9102 74.542 64.9245 74.5183C66.5298 74.4867 68.143 74.4867 69.7483 74.5183C70.7865 74.5341 71.4973 75.2611 71.5453 76.3041C71.5772 76.9995 71.5692 77.7028 71.5453 78.4061C71.5133 79.5756 70.8025 80.2947 69.6125 80.35C68.8618 80.3816 68.1111 80.35 67.3604 80.35H67.3683ZM65.1321 78.3982H69.5886V76.4464H65.1321V78.3982ZM45.4056 33.6334C45.2219 33.42 44.6629 33.3884 44.3195 33.4674C43.8802 33.578 43.7125 34.0205 43.8403 34.4473C43.984 34.9293 44.1438 35.4508 44.4552 35.8301C44.6549 36.0751 45.182 36.2331 45.4935 36.1541C45.8049 36.0751 46.0286 35.6642 46.3161 35.3718C45.9806 34.6922 45.781 34.0838 45.3976 33.6334H45.4056ZM53.7994 44.7199C54.007 44.1904 54.2386 43.6136 53.6556 43.2343C53.3761 43.0604 52.8809 43.0525 52.5455 43.1711C52.0983 43.3291 51.635 44.5934 51.8427 45.0122C52.0024 45.3283 52.3299 45.5575 52.4816 45.7155C53.3841 45.7155 53.5997 45.2335 53.7994 44.7199ZM65.5954 42.7918C65.2999 42.8234 64.9165 43.0209 64.7727 43.2659C64.637 43.5029 64.637 43.9534 64.7807 44.1983C64.9964 44.5697 65.3478 44.9095 65.7151 45.1308C65.9627 45.273 66.402 45.273 66.6655 45.1466C66.9291 45.0201 67.0728 44.6645 67.1767 44.5302C67.1607 43.7716 66.1624 42.7365 65.5954 42.7997V42.7918Z" fill="#F18F41"/>
</svg>
