<svg width="121" height="120" viewBox="0 0 121 120" fill="none" xmlns="http://www.w3.org/2000/svg">
<circle cx="60.5" cy="60" r="59" stroke="#F18F41" stroke-width="2"/>
<g clip-path="url(#clip0_76_462)">
<path d="M65.1397 95.9999H62.1838C62.0809 95.9557 61.9779 95.8969 61.8676 95.8822C58.7059 95.4925 55.9485 94.2204 53.5515 92.1249C53.3162 91.919 52.9338 91.8013 52.6177 91.794C49.4118 91.7719 46.1985 91.794 42.9853 91.7719C40.3529 91.7499 38.2426 89.9043 37.8162 87.3087C37.7647 86.9778 37.7206 86.6469 37.6618 86.2793C34.7279 87.316 31.7794 87.6543 28.75 87.2866C27.8235 87.1763 27.4779 86.8896 27.4559 85.9557C27.4118 84.3896 27.3456 82.816 27.4779 81.2646C27.6838 78.9116 28.4265 76.691 29.6324 74.6396C29.9926 74.0293 30.5882 73.8454 31.1176 74.1396C31.6471 74.4337 31.7941 75.0293 31.4706 75.6616C31.2941 76.0146 31.0882 76.3601 30.9191 76.7204C29.8824 78.9116 29.4412 81.2204 29.4265 83.7719C29.6985 83.5293 29.8676 83.3822 30.0221 83.2204C32.5074 80.7351 34.9926 78.2499 37.4779 75.7646C37.6397 75.6028 37.8015 75.419 37.9926 75.2866C38.4632 74.9704 38.9338 75.0219 39.3309 75.419C39.7059 75.8013 39.7353 76.2572 39.4559 76.7057C39.3309 76.9043 39.1544 77.0587 38.9853 77.2278C36.5 79.7131 34.0147 82.1984 31.5294 84.6837C31.3603 84.8528 31.2059 85.0293 30.9265 85.3381C31.8162 85.2719 32.4926 85.2425 33.1618 85.1616C36.9559 84.6837 40.2279 83.1984 42.6176 80.1028C44.9632 77.066 45.6912 73.544 45.5735 69.794C45.5588 69.2351 45.2353 69.1616 44.7868 69.1469C41.1029 69.0587 37.6765 69.8087 34.6618 72.0513C34.0074 72.5366 33.375 72.4778 32.9926 71.941C32.625 71.419 32.7279 70.794 33.3971 70.3822C34.6544 69.6175 35.9632 68.9557 37.2353 68.2204C37.4485 68.0954 37.6985 67.816 37.7059 67.6028C37.75 66.294 37.7353 64.9778 37.7206 63.669C37.7206 63.4778 37.625 63.2719 37.5294 63.1028C37.2279 62.5513 36.875 62.0293 36.5882 61.4704C36.2426 60.794 35.9485 60.0954 35.6691 59.4851C34.3309 59.7793 33.1103 60.1175 31.8676 60.3087C28.3309 60.8454 26.5368 59.7719 25.3382 56.419C24.9706 55.3969 24.7721 54.3087 24.5 53.2499C24.5 52.3601 24.5 51.4704 24.5 50.5807C24.5441 50.4263 24.6029 50.2719 24.6324 50.1175C25.4706 45.1101 28.2059 41.5807 32.9485 39.7572C34.4265 39.191 36.0588 39.0219 37.7353 38.6396C37.7353 38.5734 37.7353 38.3234 37.7353 38.0734C37.7353 35.6616 37.7206 33.2425 37.7353 30.8307C37.7721 26.8969 40.6691 24.0072 44.6103 23.9999C60.0735 23.9925 75.5441 23.9999 91.0074 23.9999C94.2353 23.9999 96.4927 26.2646 96.4927 29.4925C96.5 36.8528 96.5 44.2057 96.4927 51.566C96.4927 54.7866 94.2206 57.0293 90.9853 57.044C90.0294 57.044 89.0735 57.044 88.0588 57.044C88.0588 57.3896 88.0588 57.6616 88.0588 57.9337C88.0588 67.3087 88.0588 76.6837 88.0588 86.0513C88.0588 89.566 85.8676 91.7646 82.375 91.7719C79.8456 91.7719 77.3162 91.7572 74.7794 91.7866C74.4265 91.7866 74 91.9484 73.7279 92.1763C71.8676 93.7866 69.7647 94.9116 67.3897 95.5219C66.6471 95.7131 65.8897 95.8381 65.1397 95.9852V95.9999ZM86.9779 26.1469C86.7647 26.1322 86.6691 26.1175 86.5809 26.1175C72.5221 26.1175 58.4632 26.1101 44.4044 26.1175C41.8309 26.1175 39.875 28.1396 39.8529 30.7646C39.8309 33.3454 39.8529 35.919 39.8382 38.4999C39.8382 38.9631 39.9853 39.1175 40.4412 39.2278C43.875 40.0513 46.5515 41.9557 48.5 44.9116C49.3897 46.2646 49.5809 47.7057 48.8382 49.1028C48.2059 50.3087 47.3309 51.3969 46.5221 52.5072C46.1029 53.0881 45.5956 53.6175 45.0882 54.2131C45.5368 54.8454 46.1103 55.6101 46.6544 56.4043C47.9853 58.3601 47.4706 60.7719 45.4485 62.0072C44.75 62.4337 44.0221 62.816 43.3235 63.2425C42.2721 63.8822 41.2206 64.4851 39.9044 64.3234V67.2793C41.6618 67.1984 43.3603 67.0587 45.0662 67.0587C46.5662 67.0587 47.5956 67.9778 47.6544 69.3896C47.9191 75.8749 45.9779 81.3381 40.25 84.9999C40.0882 85.1028 39.9044 85.2719 39.8676 85.441C39.375 87.7131 40.9338 89.6469 43.2647 89.6543C45.75 89.6543 48.2353 89.6543 50.7132 89.6543C50.8897 89.6543 51.0662 89.6396 51.2279 89.6249C51.2426 89.544 51.25 89.5146 51.2426 89.4999C51.125 89.3013 51 89.1028 50.875 88.9043C49.1765 86.1763 48.4044 83.2057 48.5735 80.0072C48.7426 76.794 51.1691 75.1984 54.1912 76.294C57.9559 77.6543 61.7132 79.0219 65.4706 80.3896C68.375 81.4484 71.2794 82.4851 74.1691 83.5734C76.6177 84.4925 77.5147 86.9851 76.25 89.2499C76.1838 89.3601 76.1471 89.4852 76.0662 89.6616C78.1691 89.6616 80.2059 89.6616 82.2426 89.6616C84.7353 89.6616 85.9485 88.4557 85.9485 85.9557C85.9485 72.2719 85.9485 58.5881 85.9485 44.9043C85.9485 44.669 85.9265 44.4337 85.9632 44.2057C86.0515 43.6175 86.3897 43.2646 86.9926 43.2572C87.6029 43.2572 87.9412 43.6101 88.0441 44.1837C88.0809 44.3896 88.0588 44.6028 88.0588 44.816C88.0588 47.9337 88.0588 51.0513 88.0588 54.169C88.0588 54.4116 88.0588 54.6616 88.0588 54.9337C89.0588 54.9337 89.9485 54.9337 90.8382 54.9337C93.125 54.9337 94.3897 53.6616 94.3897 51.3528C94.3897 44.1322 94.3897 36.919 94.3897 29.6984C94.3897 29.5146 94.3897 29.3234 94.3897 29.1396C94.3088 27.5734 93.1029 26.2866 91.5662 26.1175C90.0147 25.9484 88.5809 26.941 88.1838 28.4704C88.0956 28.8307 88.0735 29.2131 88.0662 29.5807C88.0588 32.6028 88.0662 35.6249 88.0662 38.6469C88.0662 38.8087 88.0662 38.9778 88.0662 39.1396C88.0515 39.941 87.625 40.441 86.9853 40.419C86.3603 40.3969 85.9632 39.9263 85.9632 39.1543C85.9632 36.1543 85.9853 33.1543 85.9485 30.1543C85.9338 28.7425 86.0809 27.3969 86.9853 26.1249L86.9779 26.1469ZM31.5294 58.1763C30.9412 57.4557 30.1912 56.7866 29.7426 55.9484C27.2721 51.3822 29.4559 45.5954 34.2941 43.7131C35.1324 43.3896 35.7206 43.544 35.9779 44.1469C36.25 44.7866 35.9412 45.3087 35.0588 45.6763C34.9706 45.7131 34.8897 45.7499 34.8015 45.7866C31.2426 47.3675 29.7721 51.6837 31.6471 55.0734C32.2574 56.1763 33.2574 56.6469 34.5147 56.9263C34.2132 56.2499 33.9706 55.6984 33.7279 55.1396C33.3088 54.1837 33.2059 53.191 33.4338 52.1837C33.8971 50.169 35.1618 48.8601 37.1544 48.3969C39.125 47.941 40.8088 48.5513 42.1103 50.1249C42.5294 50.6322 42.9044 51.1837 43.375 51.8087C43.8015 50.3454 43.7794 49.1028 42.9044 47.9484C42.0441 46.8087 40.9338 46.0366 39.6103 45.5293C39.0368 45.3087 38.7647 44.8749 38.9338 44.2499C39.0956 43.6837 39.5956 43.3749 40.1985 43.544C42.8015 44.2719 45.3235 46.8013 45.6985 49.1469C45.7426 49.4263 45.7647 49.7131 45.8088 50.1543C46.1176 49.7057 46.3382 49.4043 46.5368 49.0881C47.2941 47.8749 47.2941 46.7646 46.3897 45.5366C43.0368 40.9484 36.7353 39.6249 31.8603 42.5734C27.0221 45.4925 25.2279 51.6837 27.7574 56.7499C28.4559 58.1469 30.1691 58.7499 31.5294 58.1763ZM55.1985 78.919C53.8235 82.5954 56.4779 87.5587 60.5882 89.1028C65.5588 90.9631 70.1691 87.941 71.4338 84.8307C66.0368 82.8675 60.6397 80.8969 55.1985 78.919ZM53.0882 78.0881C52.6985 78.0881 52.375 78.0366 52.0809 78.0954C51.1544 78.294 50.7353 78.941 50.6765 80.169C50.2206 89.0146 58.5147 95.7352 67.0662 93.4337C70.0956 92.6175 72.5221 90.9043 74.3235 88.3307C75.0809 87.2425 74.6912 86.0219 73.5 85.6543C70.8309 90.8602 65.0735 92.8675 60.1176 91.1837C55.2279 89.5219 51.6765 84.1763 53.0882 78.0881ZM38.25 50.3749C36.1985 50.3896 34.8603 52.419 35.6912 54.3381C36.6691 56.6101 37.6985 58.8601 38.7353 61.1101C39.25 62.2278 40.2721 62.5366 41.3676 61.9337C42.3529 61.3896 43.3235 60.8307 44.2794 60.2499C45.3456 59.6028 45.5882 58.5734 44.8824 57.566C43.4559 55.544 42 53.5366 40.5441 51.5293C39.9853 50.7646 39.2059 50.3822 38.2574 50.3749H38.25ZM58.1176 50.3013C57.9338 50.3013 57.7426 50.2866 57.5588 50.3087C56.9559 50.3749 56.5368 50.816 56.5735 51.3822C56.6103 51.9851 56.9559 52.316 57.5441 52.3969C57.75 52.4263 57.9632 52.4116 58.1765 52.4116C63.7279 52.4116 69.2794 52.4116 74.8309 52.4116C75.2059 52.4116 75.5809 52.4337 75.9559 52.4043C76.5515 52.3528 76.9853 51.8896 76.9485 51.3381C76.9044 50.7499 76.5662 50.3969 75.9779 50.316C75.7941 50.294 75.6029 50.3087 75.4191 50.3087C72.5368 50.3087 69.6544 50.3087 66.7794 50.3087C63.9044 50.3087 61.0147 50.3087 58.1397 50.3087L58.1176 50.3013ZM74.5221 58.0293C74.9706 58.0293 75.4118 58.044 75.8603 58.0293C76.5074 57.9999 76.9485 57.5513 76.9485 56.9704C76.9485 56.3896 76.5 55.9704 75.8456 55.9263C75.7279 55.919 75.6103 55.9263 75.4926 55.9263C69.6618 55.9263 63.8309 55.9263 57.9926 55.9263C57.8088 55.9263 57.6103 55.9043 57.4338 55.9484C56.8971 56.0734 56.5662 56.419 56.5735 56.9851C56.5735 57.5513 56.9118 57.8896 57.4559 58.0072C57.6618 58.0513 57.875 58.0293 58.0882 58.0293C60.9706 58.0293 63.8529 58.0293 66.7279 58.0293C69.3309 58.0293 71.9265 58.0293 74.5294 58.0293H74.5221ZM72.5074 63.6543C73.6103 63.6543 74.7059 63.669 75.8088 63.6543C76.5 63.6396 76.9559 63.1763 76.9412 62.5734C76.9265 61.9925 76.4779 61.5881 75.8162 61.5513C75.6324 61.544 75.4412 61.5513 75.2574 61.5513C69.7059 61.5513 64.1544 61.5513 58.6029 61.5513C58.2279 61.5513 57.8456 61.5219 57.4779 61.5734C56.9265 61.6543 56.5882 61.9999 56.5662 62.566C56.5441 63.169 56.8897 63.5219 57.4632 63.6396C57.6691 63.6837 57.8824 63.6616 58.0956 63.6616C60.9779 63.6616 63.8603 63.6616 66.7353 63.6616C68.6544 63.6616 70.5735 63.6616 72.5 63.6616L72.5074 63.6543ZM58.9559 67.169C58.4853 67.169 58.0147 67.1469 57.5515 67.1837C56.9485 67.2278 56.5294 67.691 56.5662 68.2499C56.6029 68.8528 56.9485 69.1837 57.5368 69.2646C57.7426 69.294 57.9559 69.2793 58.1691 69.2793C63.3015 69.2793 68.4265 69.2793 73.5588 69.2793C74.3088 69.2793 75.0588 69.294 75.8088 69.2793C76.5294 69.2572 77 68.7572 76.9412 68.1322C76.8824 67.5366 76.4265 67.1763 75.6838 67.1763C72.7059 67.1763 69.7353 67.1763 66.7574 67.1763C64.1544 67.1763 61.5588 67.1763 58.9559 67.1763V67.169ZM68 34.4557C68.0221 33.7646 67.6838 33.316 67.0956 33.2499C66.4853 33.1837 66.0588 33.4999 65.9338 34.191C65.8309 34.7866 65.5882 35.2425 64.9265 35.2351C64.2647 35.2351 64.0221 34.7793 63.9412 34.1763C63.8603 33.5881 63.5074 33.2425 62.8971 33.2499C62.2941 33.2499 61.9485 33.5954 61.8676 34.191C61.7868 34.7866 61.5294 35.2425 60.8676 35.2351C60.2132 35.2351 59.9706 34.7866 59.875 34.1837C59.7647 33.4999 59.3088 33.1837 58.6985 33.2572C58.1103 33.3307 57.7868 33.7646 57.8088 34.4704C57.8529 36.0734 59.2721 37.4484 60.9191 37.3307C61.5809 37.2866 62.2279 36.7057 62.875 36.7278C63.5368 36.7572 64.1912 37.2204 64.5147 37.3528C66.5515 37.3749 67.9485 36.066 68.0074 34.4557H68ZM51.2721 32.3381C51.1985 33.0146 51.5515 33.544 52.1471 33.6543C52.7353 33.7572 53.2206 33.3822 53.3456 32.6763C53.4412 32.1616 53.6618 31.7646 54.2206 31.7499C54.8162 31.7351 55.0588 32.1322 55.1544 32.6837C55.2647 33.3454 55.7353 33.7278 56.2941 33.6616C56.8971 33.5881 57.2868 33.066 57.2426 32.3969C57.1397 30.8528 55.8088 29.6175 54.25 29.6249C52.7206 29.6249 51.4412 30.794 51.2721 32.3381ZM68.5956 32.2351C68.4853 32.9999 68.8382 33.566 69.4779 33.6616C70.0588 33.7499 70.5074 33.3675 70.6544 32.6469C70.7574 32.1322 70.9927 31.7499 71.5515 31.7572C72.1103 31.7572 72.3529 32.1249 72.4485 32.6543C72.5735 33.3675 73.0368 33.7572 73.625 33.669C74.25 33.5734 74.6176 33.0219 74.5294 32.3087C74.3529 30.8013 73.0882 29.6543 71.5882 29.6322C70.0735 29.6175 68.8162 30.7057 68.5956 32.2351ZM52.3382 50.3013C51.7794 50.3234 51.3382 50.7866 51.3382 51.3528C51.3382 51.919 51.7794 52.3822 52.3382 52.3969C52.9118 52.4116 53.4265 51.919 53.4265 51.3454C53.4265 50.7719 52.9118 50.2793 52.3309 50.3013H52.3382ZM52.3309 55.9263C51.7721 55.9484 51.3382 56.419 51.3456 56.9851C51.3456 57.5513 51.8015 58.0072 52.3603 58.0219C52.9412 58.0366 53.4412 57.5366 53.4338 56.9631C53.4265 56.3896 52.9044 55.9043 52.3309 55.9263ZM52.3309 61.5513C51.7721 61.5734 51.3309 62.0366 51.3382 62.6028C51.3382 63.169 51.7868 63.6322 52.3456 63.6469C52.9191 63.6616 53.4338 63.1616 53.4265 62.5881C53.4265 62.0146 52.9044 61.5219 52.3309 61.544V61.5513ZM52.4412 67.1763C51.8529 67.1396 51.3603 67.6028 51.3456 68.1984C51.3309 68.7719 51.7574 69.2425 52.3162 69.2719C52.8971 69.3087 53.4118 68.8307 53.4338 68.2499C53.4485 67.7057 52.9926 67.2131 52.4412 67.1763ZM58.5368 81.6837C57.9779 81.6984 57.5294 82.169 57.5294 82.7278C57.5294 83.3013 57.9559 83.7499 58.5294 83.7719C59.125 83.794 59.6176 83.3234 59.625 82.7425C59.625 82.1763 59.1103 81.669 58.5441 81.6837H58.5368ZM61.8235 84.9263C61.2426 84.9263 60.7647 85.419 60.7721 86.0072C60.7868 86.6028 61.2721 87.044 61.875 87.0146C62.4338 86.9851 62.8824 86.4999 62.8676 85.9557C62.8529 85.419 62.3603 84.9337 61.8235 84.9263ZM65.3456 85.5513C65.3235 86.1101 65.7574 86.5807 66.3235 86.6102C66.9118 86.6469 67.3676 86.2572 67.4191 85.6837C67.4706 85.0734 67.0515 84.5807 66.4559 84.544C65.8676 84.5072 65.3603 84.9631 65.3456 85.5513Z" fill="#F18F41"/>
</g>
<defs>
<clipPath id="clip0_76_462">
<rect width="72" height="72" fill="white" transform="translate(24.5 24)"/>
</clipPath>
</defs>
</svg>
