<svg width="81" height="94" viewBox="0 0 81 94" fill="none" xmlns="http://www.w3.org/2000/svg">
<path d="M21.8947 47.6316H5.77474C6.28338 44.2443 7.4929 41.0003 9.32603 38.1069C11.1592 35.2135 13.5756 32.7342 16.4211 30.8274L21.32 27.5432L18.3095 23L13.4105 26.2842C9.28686 29.0322 5.90531 32.7556 3.56592 37.1241C1.22653 41.4925 0.0016615 46.3709 0 51.3263V69.5263C0 70.978 0.57669 72.3703 1.6032 73.3968C2.62972 74.4233 4.02197 75 5.47368 75H21.8947C23.3464 75 24.7387 74.4233 25.7652 73.3968C26.7917 72.3703 27.3684 70.978 27.3684 69.5263V53.1053C27.3684 51.6536 26.7917 50.2613 25.7652 49.2348C24.7387 48.2083 23.3464 47.6316 21.8947 47.6316ZM60.2105 47.6316H44.0905C44.5992 44.2443 45.8087 41.0003 47.6418 38.1069C49.475 35.2135 51.8914 32.7342 54.7368 30.8274L59.6358 27.5432L56.6526 23L51.7263 26.2842C47.6026 29.0322 44.2211 32.7556 41.8817 37.1241C39.5423 41.4925 38.3174 46.3709 38.3158 51.3263V69.5263C38.3158 70.978 38.8925 72.3703 39.919 73.3968C40.9455 74.4233 42.3378 75 43.7895 75H60.2105C61.6622 75 63.0545 74.4233 64.081 73.3968C65.1075 72.3703 65.6842 70.978 65.6842 69.5263V53.1053C65.6842 51.6536 65.1075 50.2613 64.081 49.2348C63.0545 48.2083 61.6622 47.6316 60.2105 47.6316Z" fill="#F3F3F3"/>
</svg>
