<svg width="17" height="18" viewBox="0 0 17 18" fill="none" xmlns="http://www.w3.org/2000/svg">
<path d="M13 2.82C12.3164 2.03962 11.9397 1.03743 11.94 0H8.85V12.4C8.82617 13.071 8.54287 13.7066 8.05976 14.1729C7.57666 14.6393 6.93145 14.8999 6.26 14.9C4.84 14.9 3.66 13.74 3.66 12.3C3.66 10.58 5.32 9.29 7.03 9.82V6.66C3.58 6.2 0.559998 8.88 0.559998 12.3C0.559998 15.63 3.32 18 6.25 18C9.39 18 11.94 15.45 11.94 12.3V6.01C13.193 6.90985 14.6974 7.39265 16.24 7.39V4.3C16.24 4.3 14.36 4.39 13 2.82Z" fill="#535353"/>
</svg>
