<svg width="24" height="24" viewBox="0 0 24 24" fill="none" xmlns="http://www.w3.org/2000/svg">
<path d="M11.93 20C13.0393 20 14.079 19.7913 15.049 19.374C16.019 18.9567 16.8663 18.3857 17.591 17.661C18.3163 16.9357 18.8877 16.088 19.305 15.118C19.7217 14.148 19.93 13.1087 19.93 12C19.93 10.8913 19.7213 9.852 19.304 8.882C18.8867 7.912 18.3153 7.06433 17.59 6.339C16.866 5.61433 16.0193 5.04333 15.05 4.626C14.0793 4.20867 13.0397 4 11.931 4C10.7823 4 9.68833 4.23733 8.649 4.712C7.60967 5.186 6.70367 5.84733 5.931 6.696V4.308H4.931V8.462H9.085V7.462H6.604C7.3 6.69533 8.10333 6.09333 9.014 5.656C9.92333 5.21867 10.8953 5 11.93 5C13.8807 5 15.535 5.67933 16.893 7.038C18.251 8.39667 18.9303 10.0507 18.931 12C18.931 13.95 18.2517 15.6043 16.893 16.963C15.5343 18.3217 13.8803 19.0007 11.931 19C10.181 19 8.658 18.43 7.362 17.29C6.06667 16.15 5.28333 14.72 5.012 13H4C4.23733 15.014 5.11067 16.684 6.62 18.01C8.13 19.3367 9.9 20 11.93 20ZM14.723 15.854L11.077 12.208V7H12.077V11.792L15.431 15.146L14.723 15.854Z" fill="#535353"/>
</svg>
