<svg width="50" height="50" viewBox="0 0 50 50" fill="none" xmlns="http://www.w3.org/2000/svg">
<path fill-rule="evenodd" clip-rule="evenodd" d="M35.6289 14.3603C34.2451 12.974 32.5987 11.8748 30.7851 11.1264C28.9714 10.3779 27.0266 9.99508 25.0632 10C16.8303 10 10.1281 16.6687 10.1248 24.8659C10.1248 27.4857 10.812 30.0425 12.1181 32.298L10 40L17.9185 37.9317C20.1088 39.1183 22.5627 39.7406 25.0565 39.7417H25.0632C33.2945 39.7417 39.9966 33.073 39.9999 24.8758C40.0056 22.9226 39.6222 20.9875 38.872 19.1826C38.1217 17.3777 37.0194 15.7387 35.6289 14.3603ZM25.0632 37.2328H25.0582C22.8344 37.2331 20.6516 36.6376 18.7388 35.5089L18.2862 35.2407L13.5873 36.4678L14.8403 31.9088L14.5457 31.4418C13.3025 29.4719 12.6443 27.1922 12.6472 24.8659C12.6506 18.0531 18.2196 12.5105 25.0682 12.5105C26.6992 12.5069 28.3148 12.8253 29.8213 13.4472C31.3279 14.0692 32.6956 14.9823 33.8452 16.1338C35.001 17.2799 35.9171 18.6425 36.5405 20.143C37.164 21.6435 37.4824 23.2521 37.4775 24.8758C37.4742 31.6886 31.9051 37.2328 25.0632 37.2328ZM31.8735 27.9775C31.4991 27.7904 29.6655 26.8928 29.3228 26.7686C28.9817 26.6444 28.7337 26.5832 28.4842 26.9541C28.2346 27.325 27.5191 28.1613 27.3011 28.4097C27.0832 28.6581 26.8652 28.6879 26.4925 28.5024C26.1198 28.317 24.9168 27.9245 23.4908 26.6593C22.381 25.674 21.6323 24.4585 21.4143 24.0859C21.1963 23.7133 21.391 23.5129 21.579 23.3275C21.7471 23.1619 21.9517 22.8936 22.1381 22.6767C22.3244 22.4597 22.386 22.3057 22.5108 22.0573C22.6356 21.8089 22.574 21.592 22.4792 21.4065C22.386 21.2194 21.6389 19.3912 21.3278 18.6476C21.0266 17.9273 20.7188 18.0233 20.4892 18.0134C20.2514 18.0037 20.0134 17.9993 19.7754 18.0001C19.5861 18.0049 19.3999 18.0486 19.2284 18.1284C19.0569 18.2082 18.9038 18.3224 18.7787 18.4638C18.4359 18.8364 17.4725 19.734 17.4725 21.5622C17.4725 23.3904 18.8103 25.1573 18.9967 25.4057C19.183 25.6541 21.6289 29.405 25.3727 31.0146C26.2645 31.3971 26.96 31.6256 27.5008 31.7979C28.3943 32.081 29.2079 32.0396 29.8519 31.9453C30.569 31.8393 32.0599 31.0477 32.371 30.18C32.6821 29.3122 32.6821 28.5687 32.589 28.413C32.4958 28.2574 32.2445 28.163 31.8735 27.9775Z" fill="#F8F8F8"/>
</svg>
